SubSource-HROTx_VROTdd_SLENx_SANGn.ufo
<glyph name="dollar" format="2">
  <advance width="354"/>
  <unicode hex="0024"/>
  <outline>
    <contour>
      <point x="230" y="706" type="curve" smooth="yes"/>
      <point x="228" y="664"/>
      <point x="222" y="624"/>
      <point x="237" y="617" type="curve" smooth="yes"/>
      <point x="373" y="553"/>
      <point x="239" y="398"/>
      <point x="133" y="433" type="curve" smooth="yes"/>
      <point x="125" y="436"/>
      <point x="117" y="437"/>
      <point x="108" y="437" type="curve" smooth="yes"/>
      <point x="72" y="437"/>
      <point x="32" y="416"/>
      <point x="32" y="358" type="curve" smooth="yes"/>
      <point x="32" y="307"/>
      <point x="81" y="283"/>
      <point x="120" y="260" type="curve" smooth="yes"/>
      <point x="192" y="220"/>
      <point x="258" y="176"/>
      <point x="258" y="78" type="curve" smooth="yes"/>
      <point x="258" y="-42"/>
      <point x="161" y="-94"/>
      <point x="84" y="-94" type="curve" smooth="yes"/>
      <point x="67" y="-94"/>
      <point x="49" y="-91"/>
      <point x="34" y="-85" type="curve" smooth="yes"/>
      <point x="-74" y="-49"/>
      <point x="-5" y="156"/>
      <point x="137" y="99" type="curve" smooth="yes"/>
      <point x="189" y="78"/>
      <point x="201" y="57"/>
      <point x="194" y="-79" type="curve" smooth="yes"/>
      <point x="190" y="-147"/>
      <point x="101" y="-142"/>
      <point x="104" y="-75" type="curve" smooth="yes"/>
      <point x="105" y="-55"/>
      <point x="110" y="12"/>
      <point x="103" y="15" type="curve" smooth="yes"/>
      <point x="97" y="18"/>
      <point x="58" y="1"/>
      <point x="64" y="-1" type="curve" smooth="yes"/>
      <point x="70" y="-3"/>
      <point x="77" y="-4"/>
      <point x="84" y="-4" type="curve" smooth="yes"/>
      <point x="123" y="-4"/>
      <point x="168" y="18"/>
      <point x="168" y="78" type="curve" smooth="yes"/>
      <point x="168" y="134"/>
      <point x="117" y="159"/>
      <point x="76" y="182" type="curve" smooth="yes"/>
      <point x="4" y="223"/>
      <point x="-58" y="265"/>
      <point x="-58" y="358" type="curve" smooth="yes"/>
      <point x="-58" y="476"/>
      <point x="34" y="527"/>
      <point x="108" y="527" type="curve" smooth="yes"/>
      <point x="129" y="527"/>
      <point x="147" y="524"/>
      <point x="161" y="519" type="curve" smooth="yes"/>
      <point x="169" y="516"/>
      <point x="208" y="531"/>
      <point x="199" y="535" type="curve" smooth="yes"/>
      <point x="150" y="558"/>
      <point x="133" y="568"/>
      <point x="140" y="710" type="curve" smooth="yes"/>
      <point x="143" y="778"/>
      <point x="233" y="773"/>
    </contour>
  </outline>
</glyph>
<glyph name="percent" format="2">
  <advance width="723"/>
  <unicode hex="0025"/>
  <outline>
    <contour>
      <point x="427" y="-103" type="curve" smooth="yes"/>
      <point x="370" y="-86"/>
      <point x="328" y="-26"/>
      <point x="328" y="66" type="curve" smooth="yes"/>
      <point x="328" y="187"/>
      <point x="389" y="262"/>
      <point x="469" y="262" type="curve" smooth="yes"/>
      <point x="548" y="262"/>
      <point x="612" y="187"/>
      <point x="612" y="66" type="curve" smooth="yes"/>
      <point x="612" y="-30"/>
      <point x="578" y="-84"/>
      <point x="536" y="-102" type="curve" smooth="yes"/>
      <point x="474" y="-127"/>
      <point x="439" y="-44"/>
      <point x="502" y="-18" type="curve" smooth="yes"/>
      <point x="514" y="-13"/>
      <point x="522" y="38"/>
      <point x="522" y="66" type="curve" smooth="yes"/>
      <point x="522" y="118"/>
      <point x="503" y="172"/>
      <point x="469" y="172" type="curve" smooth="yes"/>
      <point x="435" y="172"/>
      <point x="418" y="117"/>
      <point x="418" y="66" type="curve" smooth="yes"/>
      <point x="418" y="29"/>
      <point x="429" y="-10"/>
      <point x="453" y="-17" type="curve" smooth="yes"/>
      <point x="517" y="-36"/>
      <point x="492" y="-122"/>
    </contour>
    <contour>
      <point x="476" y="520" type="curve" smooth="yes"/>
      <point x="440" y="445"/>
      <point x="402" y="376"/>
      <point x="364" y="300" type="curve" smooth="yes"/>
      <point x="316" y="205"/>
      <point x="267" y="105"/>
      <point x="236" y="42" type="curve" smooth="yes"/>
      <point x="215" y="1"/>
      <point x="194" y="-42"/>
      <point x="188" y="-63" type="curve" smooth="yes"/>
      <point x="169" y="-127"/>
      <point x="83" y="-102"/>
      <point x="102" y="-37" type="curve" smooth="yes"/>
      <point x="110" y="-10"/>
      <point x="129" y="30"/>
      <point x="156" y="82" type="curve" smooth="yes"/>
      <point x="187" y="145"/>
      <point x="236" y="245"/>
      <point x="284" y="340" type="curve" smooth="yes"/>
      <point x="321" y="416"/>
      <point x="359" y="485"/>
      <point x="396" y="560" type="curve" smooth="yes"/>
      <point x="426" y="620"/>
      <point x="506" y="581"/>
    </contour>
    <contour>
      <point x="166" y="559" type="curve" smooth="yes"/>
      <point x="202" y="520"/>
      <point x="226" y="453"/>
      <point x="226" y="373" type="curve" smooth="yes"/>
      <point x="226" y="252"/>
      <point x="162" y="177"/>
      <point x="83" y="177" type="curve" smooth="yes"/>
      <point x="3" y="177"/>
      <point x="-58" y="252"/>
      <point x="-58" y="373" type="curve" smooth="yes"/>
      <point x="-58" y="455"/>
      <point x="-24" y="525"/>
      <point x="26" y="564" type="curve" smooth="yes"/>
      <point x="80" y="606"/>
      <point x="135" y="535"/>
      <point x="82" y="494" type="curve" smooth="yes"/>
      <point x="51" y="469"/>
      <point x="32" y="423"/>
      <point x="32" y="373" type="curve" smooth="yes"/>
      <point x="32" y="322"/>
      <point x="49" y="267"/>
      <point x="83" y="267" type="curve" smooth="yes"/>
      <point x="117" y="267"/>
      <point x="136" y="321"/>
      <point x="136" y="373" type="curve" smooth="yes"/>
      <point x="136" y="424"/>
      <point x="122" y="474"/>
      <point x="100" y="499" type="curve" smooth="yes"/>
      <point x="54" y="549"/>
      <point x="121" y="609"/>
    </contour>
  </outline>
</glyph>
<glyph name="quotesingle" format="2">
  <advance width="211"/>
  <unicode hex="0027"/>
  <outline>
    <contour>
      <point x="-25" y="318" type="curve" smooth="yes"/>
      <point x="-25" y="400"/>
      <point x="-25" y="482"/>
      <point x="6" y="574" type="curve" smooth="yes"/>
      <point x="28" y="638"/>
      <point x="113" y="610"/>
      <point x="92" y="546" type="curve" smooth="yes"/>
      <point x="65" y="465"/>
      <point x="65" y="390"/>
      <point x="65" y="318" type="curve" smooth="yes"/>
      <point x="65" y="251"/>
      <point x="-25" y="251"/>
    </contour>
  </outline>
</glyph>
<glyph name="plus" format="2">
  <advance width="382"/>
  <unicode hex="002B"/>
  <outline>
    <contour>
      <point x="147" y="403" type="curve" smooth="yes"/>
      <point x="185" y="319"/>
      <point x="189" y="180"/>
      <point x="150" y="-15" type="curve" smooth="yes"/>
      <point x="137" y="-81"/>
      <point x="49" y="-63"/>
      <point x="62" y="3" type="curve" smooth="yes"/>
      <point x="95" y="165"/>
      <point x="97" y="296"/>
      <point x="65" y="365" type="curve" smooth="yes"/>
      <point x="37" y="427"/>
      <point x="119" y="464"/>
    </contour>
    <contour>
      <point x="258" y="146" type="curve" smooth="yes"/>
      <point x="109" y="86"/>
      <point x="5" y="95"/>
      <point x="-59" y="155" type="curve" smooth="yes"/>
      <point x="-108" y="202"/>
      <point x="-46" y="267"/>
      <point x="3" y="221" type="curve" smooth="yes"/>
      <point x="44" y="182"/>
      <point x="127" y="191"/>
      <point x="224" y="230" type="curve" smooth="yes"/>
      <point x="287" y="255"/>
      <point x="320" y="172"/>
    </contour>
  </outline>
</glyph>
<glyph name="hyphen" format="2">
  <advance width="240"/>
  <unicode hex="002D"/>
  <outline>
    <contour>
      <point x="135" y="167" type="curve" smooth="yes"/>
      <point x="25" y="116"/>
      <point x="-46" y="144"/>
      <point x="-61" y="195" type="curve" smooth="yes"/>
      <point x="-80" y="260"/>
      <point x="6" y="286"/>
      <point x="25" y="221" type="curve" smooth="yes"/>
      <point x="26" y="219"/>
      <point x="92" y="247"/>
      <point x="97" y="249" type="curve" smooth="yes"/>
      <point x="158" y="277"/>
      <point x="196" y="195"/>
    </contour>
  </outline>
</glyph>
<glyph name="one" format="2">
  <advance width="244"/>
  <unicode hex="0031"/>
  <outline>
    <contour>
      <point x="26" y="615" type="curve" smooth="yes"/>
      <point x="64" y="619"/>
      <point x="109" y="610"/>
      <point x="121" y="563" type="curve" smooth="yes"/>
      <point x="129" y="534"/>
      <point x="115" y="444"/>
      <point x="115" y="350" type="curve" smooth="yes"/>
      <point x="115" y="201"/>
      <point x="115" y="135"/>
      <point x="115" y="45" type="curve" smooth="yes"/>
      <point x="115" y="41"/>
      <point x="117" y="-12"/>
      <point x="118" y="-13" type="curve" smooth="yes"/>
      <point x="173" y="-52"/>
      <point x="121" y="-126"/>
      <point x="66" y="-87" type="curve" smooth="yes"/>
      <point x="39" y="-68"/>
      <point x="25" y="-33"/>
      <point x="25" y="45" type="curve" smooth="yes"/>
      <point x="25" y="179"/>
      <point x="25" y="250"/>
      <point x="25" y="350" type="curve" smooth="yes"/>
      <point x="25" y="509"/>
      <point x="39" y="521"/>
      <point x="33" y="541" type="curve" smooth="yes"/>
      <point x="33" y="543"/>
      <point x="39" y="525"/>
      <point x="38" y="525" type="curve" smooth="yes"/>
      <point x="-29" y="517"/>
      <point x="-41" y="606"/>
    </contour>
  </outline>
</glyph>
<glyph name="two" format="2">
  <advance width="357"/>
  <unicode hex="0032"/>
  <outline>
    <contour>
      <point x="1" y="567" type="curve" smooth="yes"/>
      <point x="25" y="568"/>
      <point x="52" y="577"/>
      <point x="113" y="568" type="curve" smooth="yes"/>
      <point x="176" y="558"/>
      <point x="251" y="498"/>
      <point x="251" y="382" type="curve" smooth="yes"/>
      <point x="251" y="300"/>
      <point x="220" y="245"/>
      <point x="159" y="148" type="curve" smooth="yes"/>
      <point x="114" y="77"/>
      <point x="78" y="24"/>
      <point x="49" y="-20" type="curve" smooth="yes"/>
      <point x="46" y="-25"/>
      <point x="59" y="29"/>
      <point x="63" y="29" type="curve" smooth="yes"/>
      <point x="151" y="29"/>
      <point x="125" y="-30"/>
      <point x="153" y="-30" type="curve" smooth="yes"/>
      <point x="170" y="-30"/>
      <point x="189" y="-24"/>
      <point x="207" y="-15" type="curve" smooth="yes"/>
      <point x="267" y="16"/>
      <point x="309" y="-64"/>
      <point x="249" y="-95" type="curve" smooth="yes"/>
      <point x="217" y="-112"/>
      <point x="184" y="-120"/>
      <point x="153" y="-120" type="curve" smooth="yes"/>
      <point x="60" y="-120"/>
      <point x="90" y="-61"/>
      <point x="63" y="-61" type="curve" smooth="yes"/>
      <point x="-32" y="-61"/>
      <point x="-91" y="-68"/>
      <point x="-27" y="28" type="curve" smooth="yes"/>
      <point x="2" y="73"/>
      <point x="38" y="125"/>
      <point x="83" y="196" type="curve" smooth="yes"/>
      <point x="130" y="270"/>
      <point x="161" y="319"/>
      <point x="161" y="382" type="curve" smooth="yes"/>
      <point x="161" y="439"/>
      <point x="131" y="474"/>
      <point x="99" y="478" type="curve" smooth="yes"/>
      <point x="53" y="485"/>
      <point x="23" y="478"/>
      <point x="5" y="477" type="curve" smooth="yes"/>
      <point x="-62" y="474"/>
      <point x="-67" y="564"/>
    </contour>
  </outline>
</glyph>
<glyph name="colon" format="2">
  <advance width="184"/>
  <unicode hex="003A"/>
  <outline>
    <contour>
      <point x="5" y="-124" type="curve" smooth="yes"/>
      <point x="-67" y="-109"/>
      <point x="-67" y="-7"/>
      <point x="5" y="8" type="curve" smooth="yes"/>
      <point x="71" y="22"/>
      <point x="89" y="-66"/>
      <point x="23" y="-80" type="curve" smooth="yes"/>
      <point x="21" y="-80"/>
      <point x="21" y="-36"/>
      <point x="23" y="-36" type="curve" smooth="yes"/>
      <point x="89" y="-50"/>
      <point x="71" y="-138"/>
    </contour>
    <contour>
      <point x="5" y="236" type="curve" smooth="yes"/>
      <point x="-67" y="251"/>
      <point x="-67" y="353"/>
      <point x="5" y="368" type="curve" smooth="yes"/>
      <point x="71" y="382"/>
      <point x="89" y="294"/>
      <point x="23" y="280" type="curve" smooth="yes"/>
      <point x="21" y="280"/>
      <point x="21" y="324"/>
      <point x="23" y="324" type="curve" smooth="yes"/>
      <point x="89" y="310"/>
      <point x="71" y="222"/>
    </contour>
  </outline>
</glyph>
<glyph name="equal" format="2">
  <advance width="346"/>
  <unicode hex="003D"/>
  <outline>
    <contour>
      <point x="223" y="267" type="curve" smooth="yes"/>
      <point x="82" y="204"/>
      <point x="-11" y="217"/>
      <point x="-63" y="279" type="curve" smooth="yes"/>
      <point x="-107" y="331"/>
      <point x="-38" y="389"/>
      <point x="5" y="337" type="curve" smooth="yes"/>
      <point x="36" y="301"/>
      <point x="106" y="313"/>
      <point x="187" y="349" type="curve" smooth="yes"/>
      <point x="249" y="376"/>
      <point x="285" y="294"/>
    </contour>
    <contour>
      <point x="223" y="27" type="curve" smooth="yes"/>
      <point x="82" y="-36"/>
      <point x="-11" y="-23"/>
      <point x="-63" y="39" type="curve" smooth="yes"/>
      <point x="-107" y="91"/>
      <point x="-38" y="149"/>
      <point x="5" y="97" type="curve" smooth="yes"/>
      <point x="36" y="61"/>
      <point x="106" y="73"/>
      <point x="187" y="109" type="curve" smooth="yes"/>
      <point x="249" y="136"/>
      <point x="285" y="54"/>
    </contour>
  </outline>
</glyph>
<glyph name="A" format="2">
  <advance width="461"/>
  <unicode hex="0041"/>
  <outline>
    <contour>
      <point x="-58" y="-76" type="curve" smooth="yes"/>
      <point x="-64" y="-51"/>
      <point x="-65" y="-26"/>
      <point x="-55" y="21" type="curve" smooth="yes"/>
      <point x="-41" y="85"/>
      <point x="2" y="134"/>
      <point x="62" y="136" type="curve" smooth="yes"/>
      <point x="96" y="137"/>
      <point x="116" y="137"/>
      <point x="153" y="137" type="curve" smooth="yes"/>
      <point x="157" y="137"/>
      <point x="246" y="173"/>
      <point x="242" y="173" type="curve" smooth="yes"/>
      <point x="210" y="173"/>
      <point x="200" y="173"/>
      <point x="188" y="173" type="curve" smooth="yes"/>
      <point x="92" y="173"/>
      <point x="23" y="176"/>
      <point x="25" y="262" type="curve" smooth="yes"/>
      <point x="25" y="317"/>
      <point x="84" y="456"/>
      <point x="98" y="517" type="curve" smooth="yes"/>
      <point x="135" y="666"/>
      <point x="194" y="618"/>
      <point x="226" y="469" type="curve" smooth="yes"/>
      <point x="253" y="345"/>
      <point x="299" y="158"/>
      <point x="328" y="50" type="curve" smooth="yes"/>
      <point x="331" y="41"/>
      <point x="346" y="-23"/>
      <point x="354" y="-30" type="curve" smooth="yes"/>
      <point x="407" y="-72"/>
      <point x="351" y="-142"/>
      <point x="298" y="-100" type="curve" smooth="yes"/>
      <point x="261" y="-71"/>
      <point x="256" y="-22"/>
      <point x="242" y="26" type="curve" smooth="yes"/>
      <point x="211" y="136"/>
      <point x="165" y="325"/>
      <point x="138" y="451" type="curve" smooth="yes"/>
      <point x="137" y="457"/>
      <point x="187" y="503"/>
      <point x="186" y="497" type="curve" smooth="yes"/>
      <point x="166" y="412"/>
      <point x="115" y="301"/>
      <point x="115" y="260" type="curve" smooth="yes"/>
      <point x="115" y="256"/>
      <point x="184" y="263"/>
      <point x="188" y="263" type="curve" smooth="yes"/>
      <point x="206" y="263"/>
      <point x="221" y="263"/>
      <point x="242" y="263" type="curve" smooth="yes"/>
      <point x="358" y="263"/>
      <point x="278" y="47"/>
      <point x="153" y="47" type="curve" smooth="yes"/>
      <point x="116" y="47"/>
      <point x="98" y="47"/>
      <point x="64" y="46" type="curve" smooth="yes"/>
      <point x="48" y="46"/>
      <point x="37" y="19"/>
      <point x="33" y="1" type="curve" smooth="yes"/>
      <point x="27" y="-25"/>
      <point x="26" y="-40"/>
      <point x="30" y="-54" type="curve" smooth="yes"/>
      <point x="46" y="-120"/>
      <point x="-41" y="-141"/>
    </contour>
  </outline>
</glyph>
<glyph name="D" format="2">
  <advance width="466"/>
  <unicode hex="0044"/>
  <outline>
    <contour>
      <point x="-2" y="-82" type="curve" smooth="yes"/>
      <point x="-22" y="-68"/>
      <point x="-42" y="-54"/>
      <point x="-42" y="77" type="curve" smooth="yes"/>
      <point x="-42" y="199"/>
      <point x="-42" y="294"/>
      <point x="-42" y="376" type="curve" smooth="yes"/>
      <point x="-42" y="542"/>
      <point x="32" y="617"/>
      <point x="77" y="617" type="curve" smooth="yes"/>
      <point x="138" y="617"/>
      <point x="150" y="563"/>
      <point x="166" y="547" type="curve" smooth="yes"/>
      <point x="247" y="471"/>
      <point x="359" y="406"/>
      <point x="359" y="216" type="curve" smooth="yes"/>
      <point x="359" y="3"/>
      <point x="249" y="-140"/>
      <point x="122" y="-119" type="curve" smooth="yes"/>
      <point x="91" y="-114"/>
      <point x="67" y="-94"/>
      <point x="53" y="-62" type="curve" smooth="yes"/>
      <point x="28" y="0"/>
      <point x="111" y="35"/>
      <point x="137" y="-28" type="curve" smooth="yes"/>
      <point x="137" y="-29"/>
      <point x="136" y="-31"/>
      <point x="136" y="-31" type="curve"/>
      <point x="213" y="-43"/>
      <point x="269" y="88"/>
      <point x="269" y="216" type="curve" smooth="yes"/>
      <point x="269" y="367"/>
      <point x="169" y="421"/>
      <point x="104" y="483" type="curve" smooth="yes"/>
      <point x="-70" y="651"/>
      <point x="82" y="527"/>
      <point x="77" y="527" type="curve" smooth="yes"/>
      <point x="71" y="527"/>
      <point x="48" y="396"/>
      <point x="48" y="376" type="curve" smooth="yes"/>
      <point x="48" y="254"/>
      <point x="48" y="159"/>
      <point x="48" y="77" type="curve" smooth="yes"/>
      <point x="48" y="70"/>
      <point x="49" y="-8"/>
      <point x="50" y="-8" type="curve" smooth="yes"/>
      <point x="105" y="-48"/>
      <point x="53" y="-121"/>
    </contour>
  </outline>
</glyph>
<glyph name="F" format="2">
  <advance width="355"/>
  <unicode hex="0046"/>
  <outline>
    <contour>
      <point x="241" y="225" type="curve" smooth="yes"/>
      <point x="179" y="225"/>
      <point x="169" y="260"/>
      <point x="118" y="292" type="curve" smooth="yes"/>
      <point x="115" y="294"/>
      <point x="133" y="229"/>
      <point x="133" y="223" type="curve" smooth="yes"/>
      <point x="133" y="172"/>
      <point x="133" y="159"/>
      <point x="133" y="111" type="curve" smooth="yes"/>
      <point x="133" y="-60"/>
      <point x="-42" y="-177"/>
      <point x="-42" y="-4" type="curve" smooth="yes"/>
      <point x="-42" y="162"/>
      <point x="-50" y="332"/>
      <point x="-42" y="434" type="curve" smooth="yes"/>
      <point x="-33" y="534"/>
      <point x="21" y="600"/>
      <point x="92" y="600" type="curve" smooth="yes"/>
      <point x="135" y="600"/>
      <point x="180" y="560"/>
      <point x="214" y="560" type="curve" smooth="yes"/>
      <point x="282" y="560"/>
      <point x="282" y="470"/>
      <point x="214" y="470" type="curve" smooth="yes"/>
      <point x="144" y="470"/>
      <point x="113" y="510"/>
      <point x="92" y="510" type="curve" smooth="yes"/>
      <point x="67" y="510"/>
      <point x="51" y="462"/>
      <point x="48" y="426" type="curve" smooth="yes"/>
      <point x="40" y="330"/>
      <point x="48" y="170"/>
      <point x="48" y="-4" type="curve" smooth="yes"/>
      <point x="48" y="-12"/>
      <point x="43" y="104"/>
      <point x="43" y="111" type="curve" smooth="yes"/>
      <point x="43" y="183"/>
      <point x="43" y="189"/>
      <point x="43" y="223" type="curve" smooth="yes"/>
      <point x="43" y="361"/>
      <point x="116" y="401"/>
      <point x="166" y="368" type="curve" smooth="yes"/>
      <point x="175" y="362"/>
      <point x="229" y="315"/>
      <point x="241" y="315" type="curve" smooth="yes"/>
      <point x="309" y="315"/>
      <point x="309" y="225"/>
    </contour>
  </outline>
</glyph>
<glyph name="H" format="2">
  <advance width="486"/>
  <unicode hex="0048"/>
  <outline>
    <contour>
      <point x="68" y="537" type="curve" smooth="yes"/>
      <point x="49" y="473"/>
      <point x="49" y="440"/>
      <point x="49" y="404" type="curve" smooth="yes"/>
      <point x="49" y="283"/>
      <point x="49" y="117"/>
      <point x="49" y="10" type="curve" smooth="yes"/>
      <point x="49" y="0"/>
      <point x="44" y="119"/>
      <point x="44" y="127" type="curve" smooth="yes"/>
      <point x="44" y="183"/>
      <point x="44" y="226"/>
      <point x="44" y="264" type="curve" smooth="yes"/>
      <point x="44" y="360"/>
      <point x="101" y="399"/>
      <point x="152" y="399" type="curve" smooth="yes"/>
      <point x="226" y="399"/>
      <point x="285" y="399"/>
      <point x="335" y="399" type="curve" smooth="yes"/>
      <point x="352" y="399"/>
      <point x="354" y="421"/>
      <point x="354" y="444" type="curve" smooth="yes"/>
      <point x="354" y="487"/>
      <point x="354" y="521"/>
      <point x="354" y="550" type="curve" smooth="yes"/>
      <point x="354" y="559"/>
      <point x="359" y="439"/>
      <point x="359" y="430" type="curve" smooth="yes"/>
      <point x="359" y="270"/>
      <point x="359" y="75"/>
      <point x="359" y="37" type="curve" smooth="yes"/>
      <point x="359" y="34"/>
      <point x="351" y="-8"/>
      <point x="353" y="-9" type="curve" smooth="yes"/>
      <point x="415" y="-35"/>
      <point x="379" y="-118"/>
      <point x="317" y="-91" type="curve" smooth="yes"/>
      <point x="278" y="-74"/>
      <point x="269" y="-36"/>
      <point x="269" y="37" type="curve" smooth="yes"/>
      <point x="269" y="93"/>
      <point x="269" y="323"/>
      <point x="269" y="430" type="curve" smooth="yes"/>
      <point x="269" y="621"/>
      <point x="444" y="741"/>
      <point x="444" y="550" type="curve" smooth="yes"/>
      <point x="444" y="507"/>
      <point x="444" y="473"/>
      <point x="444" y="444" type="curve" smooth="yes"/>
      <point x="444" y="358"/>
      <point x="402" y="309"/>
      <point x="335" y="309" type="curve" smooth="yes"/>
      <point x="261" y="309"/>
      <point x="202" y="309"/>
      <point x="152" y="309" type="curve" smooth="yes"/>
      <point x="140" y="309"/>
      <point x="134" y="287"/>
      <point x="134" y="264" type="curve" smooth="yes"/>
      <point x="134" y="208"/>
      <point x="134" y="165"/>
      <point x="134" y="127" type="curve" smooth="yes"/>
      <point x="134" y="-51"/>
      <point x="-41" y="-195"/>
      <point x="-41" y="10" type="curve" smooth="yes"/>
      <point x="-41" y="170"/>
      <point x="-41" y="323"/>
      <point x="-41" y="404" type="curve" smooth="yes"/>
      <point x="-41" y="446"/>
      <point x="-41" y="489"/>
      <point x="-18" y="563" type="curve" smooth="yes"/>
      <point x="2" y="628"/>
      <point x="88" y="601"/>
    </contour>
  </outline>
</glyph>
<glyph name="O" format="2">
  <advance width="518"/>
  <unicode hex="004F"/>
  <outline>
    <contour>
      <point x="165" y="-92" type="curve" smooth="yes"/>
      <point x="112" y="-106"/>
      <point x="73" y="-99"/>
      <point x="39" y="-75" type="curve" smooth="yes"/>
      <point x="-33" y="-26"/>
      <point x="-66" y="86"/>
      <point x="-66" y="221" type="curve" smooth="yes"/>
      <point x="-66" y="432"/>
      <point x="38" y="570"/>
      <point x="176" y="570" type="curve" smooth="yes"/>
      <point x="312" y="570"/>
      <point x="414" y="432"/>
      <point x="414" y="221" type="curve" smooth="yes"/>
      <point x="414" y="93"/>
      <point x="368" y="-19"/>
      <point x="319" y="-66" type="curve" smooth="yes"/>
      <point x="281" y="-105"/>
      <point x="242" y="-105"/>
      <point x="213" y="-85" type="curve" smooth="yes"/>
      <point x="158" y="-45"/>
      <point x="210" y="28"/>
      <point x="265" y="-11" type="curve" smooth="yes"/>
      <point x="266" y="-12"/>
      <point x="255" y="-4"/>
      <point x="257" y="-2" type="curve" smooth="yes"/>
      <point x="292" y="33"/>
      <point x="324" y="128"/>
      <point x="324" y="221" type="curve" smooth="yes"/>
      <point x="324" y="363"/>
      <point x="267" y="480"/>
      <point x="176" y="480" type="curve" smooth="yes"/>
      <point x="83" y="480"/>
      <point x="24" y="364"/>
      <point x="24" y="221" type="curve" smooth="yes"/>
      <point x="24" y="132"/>
      <point x="42" y="32"/>
      <point x="91" y="-1" type="curve" smooth="yes"/>
      <point x="105" y="-11"/>
      <point x="121" y="-10"/>
      <point x="143" y="-4" type="curve" smooth="yes"/>
      <point x="208" y="13"/>
      <point x="231" y="-74"/>
    </contour>
  </outline>
</glyph>
<glyph name="Q" format="2">
  <advance width="518"/>
  <unicode hex="0051"/>
  <outline>
    <contour>
      <point x="272" y="-168" type="curve" smooth="yes"/>
      <point x="258" y="-137"/>
      <point x="228" y="-65"/>
      <point x="200" y="-3" type="curve" smooth="yes"/>
      <point x="183" y="37"/>
      <point x="166" y="74"/>
      <point x="158" y="94" type="curve" smooth="yes"/>
      <point x="133" y="157"/>
      <point x="217" y="190"/>
      <point x="242" y="128" type="curve" smooth="yes"/>
      <point x="250" y="108"/>
      <point x="265" y="75"/>
      <point x="282" y="35" type="curve" smooth="yes"/>
      <point x="310" y="-27"/>
      <point x="340" y="-99"/>
      <point x="354" y="-130" type="curve" smooth="yes"/>
      <point x="382" y="-192"/>
      <point x="300" y="-229"/>
    </contour>
    <contour>
      <point x="201" y="-127" type="curve" smooth="yes"/>
      <point x="59" y="-149"/>
      <point x="-66" y="-12"/>
      <point x="-66" y="221" type="curve" smooth="yes"/>
      <point x="-66" y="432"/>
      <point x="38" y="570"/>
      <point x="176" y="570" type="curve" smooth="yes"/>
      <point x="312" y="570"/>
      <point x="411" y="431"/>
      <point x="428" y="245" type="curve" smooth="yes"/>
      <point x="435" y="172"/>
      <point x="430" y="115"/>
      <point x="422" y="82" type="curve" smooth="yes"/>
      <point x="401" y="1"/>
      <point x="337" y="16"/>
      <point x="291" y="127" type="curve"/>
      <point x="282" y="145"/>
      <point x="267" y="182"/>
      <point x="250" y="220" type="curve" smooth="yes"/>
      <point x="222" y="281"/>
      <point x="304" y="318"/>
      <point x="332" y="256" type="curve" smooth="yes"/>
      <point x="351" y="214"/>
      <point x="364" y="183"/>
      <point x="375" y="161" type="curve"/>
      <point x="376" y="157"/>
      <point x="334" y="101"/>
      <point x="334" y="102" type="curve" smooth="yes"/>
      <point x="340" y="129"/>
      <point x="344" y="176"/>
      <point x="338" y="237" type="curve" smooth="yes"/>
      <point x="327" y="362"/>
      <point x="267" y="480"/>
      <point x="176" y="480" type="curve" smooth="yes"/>
      <point x="83" y="480"/>
      <point x="24" y="364"/>
      <point x="24" y="221" type="curve" smooth="yes"/>
      <point x="24" y="66"/>
      <point x="93" y="-53"/>
      <point x="187" y="-39" type="curve" smooth="yes"/>
      <point x="254" y="-28"/>
      <point x="267" y="-117"/>
    </contour>
  </outline>
</glyph>
<glyph name="T" format="2">
  <advance width="352"/>
  <unicode hex="0054"/>
  <outline>
    <contour>
      <point x="214" y="470" type="curve" smooth="yes"/>
      <point x="136" y="470"/>
      <point x="69" y="470"/>
      <point x="17" y="470" type="curve" smooth="yes"/>
      <point x="-129" y="470"/>
      <point x="-37" y="682"/>
      <point x="96" y="682" type="curve" smooth="yes"/>
      <point x="184" y="682"/>
      <point x="188" y="587"/>
      <point x="153" y="401" type="curve" smooth="yes"/>
      <point x="132" y="289"/>
      <point x="135" y="153"/>
      <point x="135" y="80" type="curve" smooth="yes"/>
      <point x="135" y="36"/>
      <point x="138" y="-28"/>
      <point x="143" y="-36" type="curve" smooth="yes"/>
      <point x="179" y="-93"/>
      <point x="103" y="-141"/>
      <point x="67" y="-84" type="curve" smooth="yes"/>
      <point x="54" y="-63"/>
      <point x="45" y="-27"/>
      <point x="45" y="80" type="curve" smooth="yes"/>
      <point x="45" y="157"/>
      <point x="42" y="299"/>
      <point x="65" y="417" type="curve" smooth="yes"/>
      <point x="66" y="426"/>
      <point x="100" y="592"/>
      <point x="96" y="592" type="curve" smooth="yes"/>
      <point x="91" y="592"/>
      <point x="11" y="560"/>
      <point x="17" y="560" type="curve" smooth="yes"/>
      <point x="95" y="560"/>
      <point x="162" y="560"/>
      <point x="214" y="560" type="curve" smooth="yes"/>
      <point x="282" y="560"/>
      <point x="282" y="470"/>
    </contour>
  </outline>
</glyph>
<glyph name="backslash" format="2">
  <advance width="346"/>
  <unicode hex="005C"/>
  <outline>
    <contour>
      <point x="233" y="-130" type="curve" smooth="yes"/>
      <point x="35" y="720" type="line" smooth="yes"/>
      <point x="20" y="786"/>
      <point x="108" y="806"/>
      <point x="123" y="740" type="curve" smooth="yes"/>
      <point x="321" y="-110" type="line" smooth="yes"/>
      <point x="336" y="-176"/>
      <point x="248" y="-196"/>
    </contour>
  </outline>
</glyph>
<glyph name="underscore" format="2">
  <advance width="379"/>
  <unicode hex="005F"/>
  <outline>
    <contour>
      <point x="295" y="-243" type="curve" smooth="yes"/>
      <point x="141" y="-243"/>
      <point x="18" y="-243"/>
      <point x="-86" y="-243" type="curve" smooth="yes"/>
      <point x="-153" y="-243"/>
      <point x="-153" y="-153"/>
      <point x="-86" y="-153" type="curve" smooth="yes"/>
      <point x="69" y="-153"/>
      <point x="192" y="-153"/>
      <point x="295" y="-153" type="curve" smooth="yes"/>
      <point x="363" y="-153"/>
      <point x="363" y="-243"/>
    </contour>
  </outline>
</glyph>
<glyph name="i" format="2">
  <advance width="163"/>
  <unicode hex="0069"/>
  <outline>
    <contour>
      <point x="-32" y="-76" type="curve" smooth="yes"/>
      <point x="-44" y="-44"/>
      <point x="-49" y="-4"/>
      <point x="-49" y="45" type="curve" smooth="yes"/>
      <point x="-49" y="113"/>
      <point x="-49" y="167"/>
      <point x="-49" y="213" type="curve" smooth="yes"/>
      <point x="-49" y="257"/>
      <point x="-46" y="305"/>
      <point x="-34" y="366" type="curve" smooth="yes"/>
      <point x="-22" y="433"/>
      <point x="67" y="416"/>
      <point x="54" y="350" type="curve" smooth="yes"/>
      <point x="44" y="295"/>
      <point x="41" y="253"/>
      <point x="41" y="213" type="curve" smooth="yes"/>
      <point x="41" y="145"/>
      <point x="41" y="91"/>
      <point x="41" y="45" type="curve" smooth="yes"/>
      <point x="41" y="10"/>
      <point x="44" y="-22"/>
      <point x="52" y="-44" type="curve" smooth="yes"/>
      <point x="76" y="-108"/>
      <point x="-9" y="-139"/>
    </contour>
    <contour>
      <point x="-19" y="490" type="curve" smooth="yes"/>
      <point x="-37" y="500"/>
      <point x="-58" y="524"/>
      <point x="-40" y="585" type="curve" smooth="yes"/>
      <point x="-21" y="649"/>
      <point x="65" y="624"/>
      <point x="46" y="559" type="curve" smooth="yes"/>
      <point x="46" y="558"/>
      <point x="25" y="568"/>
      <point x="25" y="568" type="curve" smooth="yes"/>
      <point x="84" y="535"/>
      <point x="39" y="456"/>
    </contour>
  </outline>
</glyph>
<glyph name="k" format="2">
  <advance width="355"/>
  <unicode hex="006B"/>
  <outline>
    <contour>
      <point x="55" y="587" type="curve" smooth="yes"/>
      <point x="46" y="532"/>
      <point x="42" y="484"/>
      <point x="42" y="442" type="curve" smooth="yes"/>
      <point x="42" y="285"/>
      <point x="42" y="157"/>
      <point x="42" y="52" type="curve" smooth="yes"/>
      <point x="42" y="14"/>
      <point x="45" y="-20"/>
      <point x="54" y="-46" type="curve" smooth="yes"/>
      <point x="75" y="-110"/>
      <point x="-10" y="-138"/>
      <point x="-32" y="-74" type="curve" smooth="yes"/>
      <point x="-43" y="-40"/>
      <point x="-48" y="2"/>
      <point x="-48" y="52" type="curve" smooth="yes"/>
      <point x="-48" y="209"/>
      <point x="-48" y="337"/>
      <point x="-48" y="442" type="curve" smooth="yes"/>
      <point x="-48" y="488"/>
      <point x="-44" y="542"/>
      <point x="-33" y="603" type="curve" smooth="yes"/>
      <point x="-22" y="669"/>
      <point x="67" y="654"/>
    </contour>
    <contour>
      <point x="241" y="307" type="curve" smooth="yes"/>
      <point x="196" y="259"/>
      <point x="160" y="226"/>
      <point x="136" y="213" type="curve"/>
      <point x="135" y="212"/>
      <point x="154" y="140"/>
      <point x="157" y="132" type="curve" smooth="yes"/>
      <point x="175" y="57"/>
      <point x="213" y="-5"/>
      <point x="250" y="-52" type="curve" smooth="yes"/>
      <point x="292" y="-104"/>
      <point x="222" y="-161"/>
      <point x="180" y="-108" type="curve" smooth="yes"/>
      <point x="135" y="-53"/>
      <point x="91" y="21"/>
      <point x="69" y="110" type="curve" smooth="yes"/>
      <point x="31" y="260"/>
      <point x="54" y="269"/>
      <point x="92" y="291" type="curve" smooth="yes"/>
      <point x="108" y="300"/>
      <point x="145" y="336"/>
      <point x="175" y="369" type="curve" smooth="yes"/>
      <point x="221" y="418"/>
      <point x="287" y="357"/>
    </contour>
  </outline>
</glyph>
<glyph name="p" format="2">
  <advance width="412"/>
  <unicode hex="0070"/>
  <outline>
    <contour>
      <point x="-12" y="-252" type="curve" smooth="yes"/>
      <point x="-47" y="-227"/>
      <point x="-52" y="-185"/>
      <point x="-52" y="-111" type="curve" smooth="yes"/>
      <point x="-52" y="-14"/>
      <point x="-52" y="65"/>
      <point x="-52" y="130" type="curve" smooth="yes"/>
      <point x="-52" y="288"/>
      <point x="29" y="388"/>
      <point x="130" y="388" type="curve" smooth="yes"/>
      <point x="231" y="388"/>
      <point x="314" y="286"/>
      <point x="314" y="128" type="curve" smooth="yes"/>
      <point x="314" y="-57"/>
      <point x="230" y="-107"/>
      <point x="155" y="-52" type="curve" smooth="yes"/>
      <point x="90" y="-6"/>
      <point x="56" y="117"/>
      <point x="27" y="225" type="curve" smooth="yes"/>
      <point x="10" y="288"/>
      <point x="11" y="363"/>
      <point x="34" y="461" type="curve" smooth="yes"/>
      <point x="50" y="527"/>
      <point x="137" y="506"/>
      <point x="122" y="441" type="curve" smooth="yes"/>
      <point x="103" y="361"/>
      <point x="100" y="300"/>
      <point x="115" y="247" type="curve" smooth="yes"/>
      <point x="132" y="180"/>
      <point x="167" y="49"/>
      <point x="207" y="20" type="curve" smooth="yes"/>
      <point x="216" y="14"/>
      <point x="224" y="108"/>
      <point x="224" y="128" type="curve" smooth="yes"/>
      <point x="224" y="217"/>
      <point x="187" y="298"/>
      <point x="130" y="298" type="curve" smooth="yes"/>
      <point x="73" y="298"/>
      <point x="38" y="219"/>
      <point x="38" y="130" type="curve" smooth="yes"/>
      <point x="38" y="33"/>
      <point x="38" y="-46"/>
      <point x="38" y="-111" type="curve" smooth="yes"/>
      <point x="38" y="-114"/>
      <point x="39" y="-177"/>
      <point x="40" y="-178" type="curve" smooth="yes"/>
      <point x="95" y="-218"/>
      <point x="43" y="-291"/>
    </contour>
  </outline>
</glyph>
<glyph name="w" format="2">
  <advance width="513"/>
  <unicode hex="0077"/>
  <outline>
    <contour>
      <point x="9" y="348" type="curve" smooth="yes"/>
      <point x="19" y="306"/>
      <point x="30" y="263"/>
      <point x="40" y="221" type="curve" smooth="yes"/>
      <point x="52" y="172"/>
      <point x="64" y="120"/>
      <point x="78" y="64" type="curve" smooth="yes"/>
      <point x="85" y="38"/>
      <point x="87" y="29"/>
      <point x="92" y="7" type="curve" smooth="yes"/>
      <point x="94" y="0"/>
      <point x="135" y="120"/>
      <point x="137" y="128" type="curve" smooth="yes"/>
      <point x="142" y="148"/>
      <point x="144" y="159"/>
      <point x="149" y="180" type="curve" smooth="yes"/>
      <point x="161" y="231"/>
      <point x="171" y="280"/>
      <point x="182" y="330" type="curve" smooth="yes"/>
      <point x="186" y="350"/>
      <point x="184" y="357"/>
      <point x="186" y="378" type="curve" smooth="yes"/>
      <point x="187" y="383"/>
      <point x="238" y="291"/>
      <point x="240" y="282" type="curve" smooth="yes"/>
      <point x="242" y="257"/>
      <point x="247" y="249"/>
      <point x="253" y="223" type="curve" smooth="yes"/>
      <point x="266" y="169"/>
      <point x="276" y="120"/>
      <point x="286" y="72" type="curve" smooth="yes"/>
      <point x="293" y="42"/>
      <point x="287" y="29"/>
      <point x="291" y="2" type="curve" smooth="yes"/>
      <point x="293" y="-6"/>
      <point x="334" y="117"/>
      <point x="336" y="125" type="curve" smooth="yes"/>
      <point x="342" y="148"/>
      <point x="344" y="157"/>
      <point x="351" y="186" type="curve" smooth="yes"/>
      <point x="358" y="213"/>
      <point x="364" y="254"/>
      <point x="359" y="263" type="curve" smooth="yes"/>
      <point x="340" y="296"/>
      <point x="352" y="323"/>
      <point x="370" y="398" type="curve" smooth="yes"/>
      <point x="386" y="464"/>
      <point x="473" y="443"/>
      <point x="458" y="378" type="curve" smooth="yes"/>
      <point x="457" y="374"/>
      <point x="437" y="308"/>
      <point x="439" y="305" type="curve" smooth="yes"/>
      <point x="453" y="279"/>
      <point x="457" y="240"/>
      <point x="439" y="164" type="curve" smooth="yes"/>
      <point x="432" y="135"/>
      <point x="430" y="126"/>
      <point x="424" y="103" type="curve" smooth="yes"/>
      <point x="382" y="-64"/>
      <point x="225" y="-170"/>
      <point x="203" y="-12" type="curve" smooth="yes"/>
      <point x="196" y="29"/>
      <point x="203" y="32"/>
      <point x="198" y="54" type="curve" smooth="yes"/>
      <point x="188" y="100"/>
      <point x="178" y="149"/>
      <point x="165" y="203" type="curve" smooth="yes"/>
      <point x="161" y="223"/>
      <point x="154" y="239"/>
      <point x="150" y="270" type="curve" smooth="yes"/>
      <point x="122" y="473"/>
      <point x="288" y="519"/>
      <point x="276" y="368" type="curve" smooth="yes"/>
      <point x="274" y="353"/>
      <point x="276" y="340"/>
      <point x="270" y="312" type="curve" smooth="yes"/>
      <point x="259" y="260"/>
      <point x="249" y="211"/>
      <point x="237" y="160" type="curve" smooth="yes"/>
      <point x="232" y="137"/>
      <point x="230" y="128"/>
      <point x="225" y="108" type="curve" smooth="yes"/>
      <point x="188" y="-55"/>
      <point x="47" y="-183"/>
      <point x="4" y="-13" type="curve" smooth="yes"/>
      <point x="-1" y="7"/>
      <point x="-3" y="16"/>
      <point x="-10" y="42" type="curve" smooth="yes"/>
      <point x="-24" y="98"/>
      <point x="-36" y="150"/>
      <point x="-48" y="201" type="curve" smooth="yes"/>
      <point x="-58" y="243"/>
      <point x="-69" y="286"/>
      <point x="-79" y="328" type="curve" smooth="yes"/>
      <point x="-94" y="393"/>
      <point x="-7" y="414"/>
    </contour>
  </outline>
</glyph>
<glyph name="y" format="2">
  <advance width="346"/>
  <unicode hex="0079"/>
  <outline>
    <contour>
      <point x="73" y="-111" type="curve" smooth="yes"/>
      <point x="83" y="-81"/>
      <point x="94" y="-48"/>
      <point x="103" y="-17" type="curve" smooth="yes"/>
      <point x="109" y="1"/>
      <point x="115" y="20"/>
      <point x="119" y="34" type="curve"/>
      <point x="123" y="46"/>
      <point x="54" y="77"/>
      <point x="41" y="85" type="curve" smooth="yes"/>
      <point x="-17" y="118"/>
      <point x="-46" y="216"/>
      <point x="-82" y="324" type="curve" smooth="yes"/>
      <point x="-103" y="388"/>
      <point x="-18" y="416"/>
      <point x="4" y="352" type="curve" smooth="yes"/>
      <point x="21" y="302"/>
      <point x="59" y="179"/>
      <point x="85" y="163" type="curve" smooth="yes"/>
      <point x="199" y="98"/>
      <point x="232" y="90"/>
      <point x="205" y="10" type="curve"/>
      <point x="201" y="-6"/>
      <point x="195" y="-23"/>
      <point x="189" y="-43" type="curve" smooth="yes"/>
      <point x="180" y="-74"/>
      <point x="169" y="-109"/>
      <point x="159" y="-139" type="curve" smooth="yes"/>
      <point x="137" y="-203"/>
      <point x="52" y="-175"/>
    </contour>
    <contour>
      <point x="271" y="340" type="curve" smooth="yes"/>
      <point x="243" y="275"/>
      <point x="225" y="217"/>
      <point x="215" y="184" type="curve" smooth="yes"/>
      <point x="184" y="85"/>
      <point x="140" y="-48"/>
      <point x="121" y="-111" type="curve" smooth="yes"/>
      <point x="115" y="-131"/>
      <point x="109" y="-149"/>
      <point x="103" y="-168" type="curve" smooth="yes"/>
      <point x="93" y="-198"/>
      <point x="84" y="-229"/>
      <point x="74" y="-259" type="curve" smooth="yes"/>
      <point x="52" y="-323"/>
      <point x="-33" y="-295"/>
      <point x="-12" y="-231" type="curve" smooth="yes"/>
      <point x="-2" y="-201"/>
      <point x="7" y="-170"/>
      <point x="17" y="-140" type="curve" smooth="yes"/>
      <point x="23" y="-121"/>
      <point x="29" y="-103"/>
      <point x="35" y="-85" type="curve" smooth="yes"/>
      <point x="54" y="-22"/>
      <point x="98" y="113"/>
      <point x="129" y="210" type="curve" smooth="yes"/>
      <point x="139" y="245"/>
      <point x="159" y="307"/>
      <point x="189" y="376" type="curve" smooth="yes"/>
      <point x="216" y="438"/>
      <point x="298" y="402"/>
    </contour>
  </outline>
</glyph>
<glyph name="braceleft" format="2">
  <advance width="330"/>
  <unicode hex="007B"/>
  <outline>
    <contour>
      <point x="166" y="556" type="curve" smooth="yes"/>
      <point x="145" y="566"/>
      <point x="124" y="569"/>
      <point x="110" y="564" type="curve" smooth="yes"/>
      <point x="90" y="556"/>
      <point x="81" y="531"/>
      <point x="81" y="499" type="curve" smooth="yes"/>
      <point x="81" y="449"/>
      <point x="117" y="376"/>
      <point x="139" y="363" type="curve" smooth="yes"/>
      <point x="194" y="330"/>
      <point x="207" y="259"/>
      <point x="89" y="259" type="curve" smooth="yes"/>
      <point x="85" y="259"/>
      <point x="0" y="229"/>
      <point x="4" y="229" type="curve" smooth="yes"/>
      <point x="84" y="229"/>
      <point x="122" y="174"/>
      <point x="122" y="100" type="curve" smooth="yes"/>
      <point x="122" y="23"/>
      <point x="81" y="-66"/>
      <point x="81" y="-130" type="curve" smooth="yes"/>
      <point x="81" y="-160"/>
      <point x="89" y="-186"/>
      <point x="107" y="-194" type="curve" smooth="yes"/>
      <point x="122" y="-201"/>
      <point x="143" y="-198"/>
      <point x="166" y="-187" type="curve" smooth="yes"/>
      <point x="227" y="-158"/>
      <point x="265" y="-240"/>
      <point x="204" y="-269" type="curve" smooth="yes"/>
      <point x="152" y="-294"/>
      <point x="105" y="-293"/>
      <point x="69" y="-276" type="curve" smooth="yes"/>
      <point x="24" y="-255"/>
      <point x="-9" y="-205"/>
      <point x="-9" y="-130" type="curve" smooth="yes"/>
      <point x="-9" y="-50"/>
      <point x="32" y="38"/>
      <point x="32" y="100" type="curve" smooth="yes"/>
      <point x="32" y="124"/>
      <point x="30" y="139"/>
      <point x="4" y="139" type="curve" smooth="yes"/>
      <point x="-112" y="139"/>
      <point x="-29" y="349"/>
      <point x="89" y="349" type="curve" smooth="yes"/>
      <point x="93" y="349"/>
      <point x="95" y="284"/>
      <point x="93" y="285" type="curve" smooth="yes"/>
      <point x="51" y="310"/>
      <point x="-9" y="404"/>
      <point x="-9" y="499" type="curve" smooth="yes"/>
      <point x="-9" y="578"/>
      <point x="27" y="628"/>
      <point x="78" y="648" type="curve" smooth="yes"/>
      <point x="111" y="661"/>
      <point x="155" y="660"/>
      <point x="204" y="638" type="curve" smooth="yes"/>
      <point x="265" y="610"/>
      <point x="228" y="528"/>
    </contour>
  </outline>
</glyph>
<glyph name="exclamdown" format="2">
  <advance width="185"/>
  <unicode hex="00A1"/>
  <outline>
    <contour>
      <point x="54" y="175" type="curve" smooth="yes"/>
      <point x="54" y="-180" type="line" smooth="yes"/>
      <point x="54" y="-247"/>
      <point x="-36" y="-247"/>
      <point x="-36" y="-180" type="curve" smooth="yes"/>
      <point x="-36" y="175" type="line" smooth="yes"/>
      <point x="-36" y="243"/>
      <point x="54" y="243"/>
    </contour>
    <contour>
      <point x="6" y="332" type="curve" smooth="yes"/>
      <point x="-67" y="346"/>
      <point x="-67" y="450"/>
      <point x="6" y="464" type="curve" smooth="yes"/>
      <point x="72" y="477"/>
      <point x="90" y="389"/>
      <point x="24" y="376" type="curve" smooth="yes"/>
      <point x="22" y="375"/>
      <point x="22" y="421"/>
      <point x="24" y="420" type="curve" smooth="yes"/>
      <point x="90" y="407"/>
      <point x="72" y="319"/>
    </contour>
  </outline>
</glyph>
<glyph name="cent" format="2">
  <advance width="335"/>
  <unicode hex="00A2"/>
  <outline>
    <contour>
      <point x="229" y="618" type="curve" smooth="yes"/>
      <point x="229" y="611"/>
      <point x="220" y="511"/>
      <point x="222" y="510" type="curve" smooth="yes"/>
      <point x="328" y="448"/>
      <point x="257" y="347"/>
      <point x="144" y="339" type="curve" smooth="yes"/>
      <point x="125" y="338"/>
      <point x="103" y="335"/>
      <point x="84" y="327" type="curve" smooth="yes"/>
      <point x="51" y="313"/>
      <point x="25" y="285"/>
      <point x="25" y="194" type="curve" smooth="yes"/>
      <point x="25" y="119"/>
      <point x="52" y="74"/>
      <point x="85" y="60" type="curve" smooth="yes"/>
      <point x="96" y="56"/>
      <point x="111" y="54"/>
      <point x="120" y="57" type="curve" smooth="yes"/>
      <point x="125" y="58"/>
      <point x="220" y="58"/>
      <point x="216" y="57" type="curve" smooth="yes"/>
      <point x="209" y="53"/>
      <point x="201" y="13"/>
      <point x="200" y="-32" type="curve" smooth="yes"/>
      <point x="198" y="-100"/>
      <point x="108" y="-97"/>
      <point x="110" y="-30" type="curve" smooth="yes"/>
      <point x="114" y="94"/>
      <point x="150" y="123"/>
      <point x="176" y="137" type="curve" smooth="yes"/>
      <point x="281" y="190"/>
      <point x="296" y="19"/>
      <point x="148" y="-29" type="curve" smooth="yes"/>
      <point x="121" y="-38"/>
      <point x="85" y="-37"/>
      <point x="49" y="-22" type="curve" smooth="yes"/>
      <point x="-6" y="1"/>
      <point x="-65" y="68"/>
      <point x="-65" y="194" type="curve" smooth="yes"/>
      <point x="-65" y="338"/>
      <point x="-4" y="387"/>
      <point x="50" y="411" type="curve" smooth="yes"/>
      <point x="79" y="423"/>
      <point x="107" y="426"/>
      <point x="138" y="429" type="curve" smooth="yes"/>
      <point x="143" y="429"/>
      <point x="181" y="429"/>
      <point x="176" y="432" type="curve" smooth="yes"/>
      <point x="138" y="455"/>
      <point x="133" y="479"/>
      <point x="139" y="622" type="curve" smooth="yes"/>
      <point x="142" y="689"/>
      <point x="232" y="685"/>
    </contour>
  </outline>
</glyph>
<glyph name="yen" format="2">
  <advance width="423"/>
  <unicode hex="00A5"/>
  <outline>
    <contour>
      <point x="336" y="85" type="curve" smooth="yes"/>
      <point x="214" y="51"/>
      <point x="113" y="53"/>
      <point x="38" y="87" type="curve" smooth="yes"/>
      <point x="-24" y="115"/>
      <point x="13" y="197"/>
      <point x="74" y="169" type="curve" smooth="yes"/>
      <point x="133" y="143"/>
      <point x="217" y="145"/>
      <point x="312" y="171" type="curve" smooth="yes"/>
      <point x="377" y="189"/>
      <point x="401" y="103"/>
    </contour>
    <contour>
      <point x="317" y="502" type="curve" smooth="yes"/>
      <point x="295" y="452"/>
      <point x="271" y="385"/>
      <point x="266" y="360" type="curve" smooth="yes"/>
      <point x="252" y="297"/>
      <point x="228" y="253"/>
      <point x="145" y="253" type="curve" smooth="yes"/>
      <point x="107" y="253"/>
      <point x="88" y="253"/>
      <point x="63" y="253" type="curve" smooth="yes"/>
      <point x="-5" y="253"/>
      <point x="-4" y="343"/>
      <point x="63" y="343" type="curve" smooth="yes"/>
      <point x="101" y="343"/>
      <point x="120" y="343"/>
      <point x="145" y="343" type="curve" smooth="yes"/>
      <point x="175" y="343"/>
      <point x="173" y="357"/>
      <point x="178" y="380" type="curve" smooth="yes"/>
      <point x="185" y="409"/>
      <point x="209" y="479"/>
      <point x="235" y="538" type="curve" smooth="yes"/>
      <point x="262" y="600"/>
      <point x="344" y="564"/>
    </contour>
    <contour>
      <point x="19" y="539" type="curve" smooth="yes"/>
      <point x="35" y="504"/>
      <point x="53" y="465"/>
      <point x="71" y="427" type="curve" smooth="yes"/>
      <point x="98" y="370"/>
      <point x="124" y="313"/>
      <point x="142" y="272" type="curve" smooth="yes"/>
      <point x="172" y="205"/>
      <point x="172" y="177"/>
      <point x="172" y="103" type="curve" smooth="yes"/>
      <point x="172" y="29"/>
      <point x="172" y="-30"/>
      <point x="172" y="-80" type="curve" smooth="yes"/>
      <point x="172" y="-147"/>
      <point x="82" y="-147"/>
      <point x="82" y="-80" type="curve" smooth="yes"/>
      <point x="82" y="-6"/>
      <point x="82" y="53"/>
      <point x="82" y="103" type="curve" smooth="yes"/>
      <point x="82" y="163"/>
      <point x="84" y="181"/>
      <point x="60" y="236" type="curve" smooth="yes"/>
      <point x="42" y="277"/>
      <point x="16" y="332"/>
      <point x="-11" y="389" type="curve" smooth="yes"/>
      <point x="-29" y="427"/>
      <point x="-47" y="466"/>
      <point x="-63" y="501" type="curve" smooth="yes"/>
      <point x="-91" y="563"/>
      <point x="-9" y="600"/>
    </contour>
    <contour>
      <point x="269" y="295" type="curve" smooth="yes"/>
      <point x="270" y="292"/>
      <point x="286" y="300"/>
      <point x="289" y="301" type="curve" smooth="yes"/>
      <point x="353" y="322"/>
      <point x="381" y="237"/>
      <point x="317" y="215" type="curve" smooth="yes"/>
      <point x="248" y="192"/>
      <point x="205" y="212"/>
      <point x="185" y="261" type="curve" smooth="yes"/>
      <point x="160" y="324"/>
      <point x="244" y="357"/>
    </contour>
  </outline>
</glyph>
<glyph name="brokenbar" format="2">
  <advance width="223"/>
  <unicode hex="00A6"/>
  <outline>
    <contour>
      <point x="99" y="139" type="curve" smooth="yes"/>
      <point x="72" y="28"/>
      <point x="72" y="-99"/>
      <point x="72" y="-240" type="curve" smooth="yes"/>
      <point x="72" y="-307"/>
      <point x="-18" y="-307"/>
      <point x="-18" y="-240" type="curve" smooth="yes"/>
      <point x="-18" y="-89"/>
      <point x="-18" y="41"/>
      <point x="11" y="161" type="curve" smooth="yes"/>
      <point x="27" y="226"/>
      <point x="115" y="205"/>
    </contour>
    <contour>
      <point x="72" y="610" type="curve" smooth="yes"/>
      <point x="72" y="495"/>
      <point x="72" y="359"/>
      <point x="93" y="323" type="curve" smooth="yes"/>
      <point x="129" y="266"/>
      <point x="52" y="219"/>
      <point x="17" y="277" type="curve" smooth="yes"/>
      <point x="-17" y="331"/>
      <point x="-18" y="435"/>
      <point x="-18" y="610" type="curve" smooth="yes"/>
      <point x="-18" y="678"/>
      <point x="72" y="678"/>
    </contour>
  </outline>
</glyph>
<glyph name="section" format="2">
  <advance width="357"/>
  <unicode hex="00A7"/>
  <outline>
    <contour>
      <point x="219" y="486" type="curve" smooth="yes"/>
      <point x="164" y="476"/>
      <point x="132" y="480"/>
      <point x="103" y="480" type="curve" smooth="yes"/>
      <point x="64" y="480"/>
      <point x="47" y="456"/>
      <point x="43" y="412" type="curve" smooth="yes"/>
      <point x="38" y="357"/>
      <point x="80" y="333"/>
      <point x="112" y="305" type="curve" smooth="yes"/>
      <point x="165" y="258"/>
      <point x="217" y="209"/>
      <point x="217" y="120" type="curve" smooth="yes"/>
      <point x="217" y="37"/>
      <point x="156" y="-30"/>
      <point x="59" y="-33" type="curve" smooth="yes"/>
      <point x="-8" y="-35"/>
      <point x="-11" y="55"/>
      <point x="57" y="57" type="curve" smooth="yes"/>
      <point x="100" y="58"/>
      <point x="127" y="83"/>
      <point x="127" y="120" type="curve" smooth="yes"/>
      <point x="127" y="176"/>
      <point x="86" y="208"/>
      <point x="54" y="237" type="curve" smooth="yes"/>
      <point x="-3" y="286"/>
      <point x="-56" y="325"/>
      <point x="-47" y="420" type="curve" smooth="yes"/>
      <point x="-39" y="514"/>
      <point x="20" y="570"/>
      <point x="103" y="570" type="curve" smooth="yes"/>
      <point x="126" y="570"/>
      <point x="158" y="566"/>
      <point x="203" y="574" type="curve" smooth="yes"/>
      <point x="269" y="586"/>
      <point x="285" y="498"/>
    </contour>
    <contour>
      <point x="44" y="-97" type="curve" smooth="yes"/>
      <point x="54" y="-116"/>
      <point x="65" y="-127"/>
      <point x="78" y="-127" type="curve" smooth="yes"/>
      <point x="117" y="-127"/>
      <point x="169" y="-63"/>
      <point x="173" y="-24" type="curve" smooth="yes"/>
      <point x="178" y="22"/>
      <point x="136" y="36"/>
      <point x="103" y="53" type="curve" smooth="yes"/>
      <point x="34" y="87"/>
      <point x="-30" y="128"/>
      <point x="-30" y="223" type="curve" smooth="yes"/>
      <point x="-30" y="298"/>
      <point x="21" y="372"/>
      <point x="136" y="410" type="curve" smooth="yes"/>
      <point x="200" y="431"/>
      <point x="228" y="345"/>
      <point x="164" y="324" type="curve" smooth="yes"/>
      <point x="98" y="303"/>
      <point x="60" y="266"/>
      <point x="60" y="223" type="curve" smooth="yes"/>
      <point x="60" y="171"/>
      <point x="106" y="152"/>
      <point x="143" y="133" type="curve" smooth="yes"/>
      <point x="212" y="99"/>
      <point x="273" y="61"/>
      <point x="263" y="-32" type="curve" smooth="yes"/>
      <point x="255" y="-119"/>
      <point x="164" y="-217"/>
      <point x="78" y="-217" type="curve" smooth="yes"/>
      <point x="36" y="-217"/>
      <point x="-8" y="-195"/>
      <point x="-36" y="-137" type="curve" smooth="yes"/>
      <point x="-66" y="-76"/>
      <point x="15" y="-37"/>
    </contour>
  </outline>
</glyph>
<glyph name="dieresis" format="2">
  <advance width="409"/>
  <unicode hex="00A8"/>
  <outline>
    <contour>
      <point x="41" y="472" type="curve" smooth="yes"/>
      <point x="-31" y="487"/>
      <point x="-31" y="589"/>
      <point x="41" y="604" type="curve" smooth="yes"/>
      <point x="107" y="618"/>
      <point x="125" y="530"/>
      <point x="59" y="516" type="curve" smooth="yes"/>
      <point x="57" y="516"/>
      <point x="57" y="560"/>
      <point x="59" y="560" type="curve" smooth="yes"/>
      <point x="125" y="546"/>
      <point x="107" y="458"/>
    </contour>
    <contour>
      <point x="197" y="472" type="curve" smooth="yes"/>
      <point x="124" y="486"/>
      <point x="124" y="590"/>
      <point x="197" y="604" type="curve" smooth="yes"/>
      <point x="263" y="617"/>
      <point x="281" y="529"/>
      <point x="215" y="516" type="curve" smooth="yes"/>
      <point x="213" y="515"/>
      <point x="213" y="561"/>
      <point x="215" y="560" type="curve" smooth="yes"/>
      <point x="281" y="547"/>
      <point x="263" y="459"/>
    </contour>
  </outline>
</glyph>
<glyph name="ordfeminine" format="2">
  <advance width="351"/>
  <unicode hex="00AA"/>
  <outline>
    <contour>
      <point x="231" y="37" type="curve" smooth="yes"/>
      <point x="96" y="-28"/>
      <point x="11" y="-12"/>
      <point x="-33" y="53" type="curve" smooth="yes"/>
      <point x="-70" y="110"/>
      <point x="5" y="159"/>
      <point x="43" y="103" type="curve" smooth="yes"/>
      <point x="64" y="71"/>
      <point x="126" y="87"/>
      <point x="193" y="119" type="curve" smooth="yes"/>
      <point x="253" y="148"/>
      <point x="292" y="67"/>
    </contour>
    <contour>
      <point x="234" y="522" type="curve" smooth="yes"/>
      <point x="234" y="474"/>
      <point x="234" y="428"/>
      <point x="234" y="375" type="curve" smooth="yes"/>
      <point x="234" y="257"/>
      <point x="169" y="185"/>
      <point x="90" y="185" type="curve" smooth="yes"/>
      <point x="10" y="185"/>
      <point x="-54" y="260"/>
      <point x="-54" y="378" type="curve" smooth="yes"/>
      <point x="-54" y="483"/>
      <point x="-15" y="540"/>
      <point x="81" y="577" type="curve" smooth="yes"/>
      <point x="187" y="618"/>
      <point x="318" y="628"/>
      <point x="318" y="501" type="curve" smooth="yes"/>
      <point x="318" y="410"/>
      <point x="318" y="383"/>
      <point x="318" y="354" type="curve" smooth="yes"/>
      <point x="318" y="287"/>
      <point x="228" y="287"/>
      <point x="228" y="354" type="curve" smooth="yes"/>
      <point x="228" y="398"/>
      <point x="228" y="440"/>
      <point x="228" y="501" type="curve" smooth="yes"/>
      <point x="228" y="534"/>
      <point x="141" y="504"/>
      <point x="113" y="493" type="curve" smooth="yes"/>
      <point x="52" y="470"/>
      <point x="36" y="445"/>
      <point x="36" y="378" type="curve" smooth="yes"/>
      <point x="36" y="327"/>
      <point x="56" y="275"/>
      <point x="90" y="275" type="curve" smooth="yes"/>
      <point x="125" y="275"/>
      <point x="144" y="323"/>
      <point x="144" y="375" type="curve" smooth="yes"/>
      <point x="144" y="454"/>
      <point x="144" y="490"/>
      <point x="144" y="522" type="curve" smooth="yes"/>
      <point x="144" y="590"/>
      <point x="234" y="590"/>
    </contour>
  </outline>
</glyph>
<glyph name="guillemetleft" format="2">
  <advance width="451"/>
  <unicode hex="00AB"/>
  <outline>
    <contour>
      <point x="148" y="311" type="curve" smooth="yes"/>
      <point x="117" y="270"/>
      <point x="123" y="276"/>
      <point x="84" y="223" type="curve" smooth="yes"/>
      <point x="50" y="175"/>
      <point x="39" y="164"/>
      <point x="56" y="94" type="curve" smooth="yes"/>
      <point x="70" y="38"/>
      <point x="105" y="27"/>
      <point x="143" y="18" type="curve" smooth="yes"/>
      <point x="209" y="3"/>
      <point x="189" y="-85"/>
      <point x="123" y="-70" type="curve" smooth="yes"/>
      <point x="57" y="-55"/>
      <point x="-8" y="-24"/>
      <point x="-32" y="74" type="curve" smooth="yes"/>
      <point x="-55" y="172"/>
      <point x="-38" y="207"/>
      <point x="12" y="277" type="curve" smooth="yes"/>
      <point x="51" y="329"/>
      <point x="45" y="323"/>
      <point x="76" y="365" type="curve" smooth="yes"/>
      <point x="116" y="419"/>
      <point x="188" y="366"/>
    </contour>
    <contour>
      <point x="332" y="311" type="curve" smooth="yes"/>
      <point x="301" y="269"/>
      <point x="306" y="277"/>
      <point x="269" y="224" type="curve" smooth="yes"/>
      <point x="234" y="175"/>
      <point x="223" y="164"/>
      <point x="240" y="94" type="curve" smooth="yes"/>
      <point x="254" y="37"/>
      <point x="289" y="27"/>
      <point x="327" y="18" type="curve" smooth="yes"/>
      <point x="393" y="3"/>
      <point x="373" y="-85"/>
      <point x="307" y="-70" type="curve" smooth="yes"/>
      <point x="242" y="-55"/>
      <point x="176" y="-25"/>
      <point x="152" y="74" type="curve" smooth="yes"/>
      <point x="129" y="172"/>
      <point x="146" y="207"/>
      <point x="195" y="276" type="curve" smooth="yes"/>
      <point x="234" y="329"/>
      <point x="229" y="323"/>
      <point x="260" y="365" type="curve" smooth="yes"/>
      <point x="300" y="419"/>
      <point x="372" y="366"/>
    </contour>
  </outline>
</glyph>
<glyph name="macron" format="2">
  <advance width="346"/>
  <unicode hex="00AF"/>
  <outline>
    <contour>
      <point x="221" y="520" type="curve" smooth="yes"/>
      <point x="113" y="454"/>
      <point x="-8" y="482"/>
      <point x="-23" y="548" type="curve" smooth="yes"/>
      <point x="-38" y="614"/>
      <point x="50" y="634"/>
      <point x="65" y="568" type="curve" smooth="yes"/>
      <point x="66" y="562"/>
      <point x="164" y="590"/>
      <point x="175" y="596" type="curve" smooth="yes"/>
      <point x="232" y="631"/>
      <point x="279" y="555"/>
    </contour>
  </outline>
</glyph>
<glyph name="degree" format="2">
  <advance width="376"/>
  <unicode hex="00B0"/>
  <outline>
    <contour>
      <point x="82" y="191" type="curve" smooth="yes"/>
      <point x="2" y="192"/>
      <point x="-56" y="256"/>
      <point x="-56" y="361" type="curve" smooth="yes"/>
      <point x="-56" y="488"/>
      <point x="13" y="570"/>
      <point x="102" y="570" type="curve" smooth="yes"/>
      <point x="192" y="570"/>
      <point x="263" y="488"/>
      <point x="263" y="361" type="curve" smooth="yes"/>
      <point x="263" y="240"/>
      <point x="214" y="193"/>
      <point x="166" y="191" type="curve" smooth="yes"/>
      <point x="99" y="189"/>
      <point x="96" y="279"/>
      <point x="164" y="281" type="curve" smooth="yes"/>
      <point x="166" y="281"/>
      <point x="173" y="355"/>
      <point x="173" y="361" type="curve" smooth="yes"/>
      <point x="173" y="424"/>
      <point x="147" y="480"/>
      <point x="102" y="480" type="curve" smooth="yes"/>
      <point x="58" y="480"/>
      <point x="34" y="424"/>
      <point x="34" y="361" type="curve" smooth="yes"/>
      <point x="34" y="315"/>
      <point x="49" y="282"/>
      <point x="84" y="281" type="curve" smooth="yes"/>
      <point x="151" y="280"/>
      <point x="150" y="190"/>
    </contour>
  </outline>
</glyph>
<glyph name="cedilla" format="2">
  <advance width="294"/>
  <unicode hex="00B8"/>
  <outline>
    <contour>
      <point x="90" y="-82" type="curve" smooth="yes"/>
      <point x="90" y="-97"/>
      <point x="89" y="-146"/>
      <point x="98" y="-149" type="curve" smooth="yes"/>
      <point x="144" y="-167"/>
      <point x="162" y="-206"/>
      <point x="162" y="-252" type="curve" smooth="yes"/>
      <point x="162" y="-352"/>
      <point x="50" y="-416"/>
      <point x="-19" y="-296" type="curve" smooth="yes"/>
      <point x="-53" y="-238"/>
      <point x="25" y="-193"/>
      <point x="59" y="-252" type="curve" smooth="yes"/>
      <point x="70" y="-271"/>
      <point x="72" y="-268"/>
      <point x="72" y="-252" type="curve" smooth="yes"/>
      <point x="72" y="-244"/>
      <point x="73" y="-236"/>
      <point x="64" y="-233" type="curve" smooth="yes"/>
      <point x="13" y="-212"/>
      <point x="0" y="-170"/>
      <point x="0" y="-82" type="curve" smooth="yes"/>
      <point x="0" y="-14"/>
      <point x="90" y="-15"/>
    </contour>
  </outline>
</glyph>
<glyph name="guillemetright" format="2">
  <advance width="451"/>
  <unicode hex="00BB"/>
  <outline>
    <contour>
      <point x="218" y="91" type="curve" smooth="yes"/>
      <point x="357" y="287" type="line"/>
      <point x="357" y="235" type="line"/>
      <point x="218" y="433" type="line" smooth="yes"/>
      <point x="179" y="488"/>
      <point x="253" y="540"/>
      <point x="292" y="485" type="curve" smooth="yes"/>
      <point x="431" y="287" type="line" smooth="yes"/>
      <point x="442" y="271"/>
      <point x="442" y="250"/>
      <point x="431" y="235" type="curve" smooth="yes"/>
      <point x="292" y="39" type="line" smooth="yes"/>
      <point x="253" y="-16"/>
      <point x="179" y="36"/>
    </contour>
    <contour>
      <point x="34" y="91" type="curve" smooth="yes"/>
      <point x="173" y="287" type="line"/>
      <point x="173" y="235" type="line"/>
      <point x="34" y="433" type="line" smooth="yes"/>
      <point x="-5" y="488"/>
      <point x="69" y="540"/>
      <point x="108" y="485" type="curve" smooth="yes"/>
      <point x="247" y="287" type="line" smooth="yes"/>
      <point x="258" y="271"/>
      <point x="258" y="250"/>
      <point x="247" y="235" type="curve" smooth="yes"/>
      <point x="108" y="39" type="line" smooth="yes"/>
      <point x="69" y="-16"/>
      <point x="-5" y="36"/>
    </contour>
  </outline>
</glyph>
<glyph name="onehalf" format="2">
  <advance width="664"/>
  <unicode hex="00BD"/>
  <outline>
    <contour>
      <point x="-42" y="540" type="curve" smooth="yes"/>
      <point x="69" y="573"/>
      <point x="94" y="527"/>
      <point x="94" y="432" type="curve" smooth="yes"/>
      <point x="94" y="333"/>
      <point x="94" y="256"/>
      <point x="94" y="191" type="curve" smooth="yes"/>
      <point x="94" y="124"/>
      <point x="4" y="124"/>
      <point x="4" y="191" type="curve" smooth="yes"/>
      <point x="4" y="288"/>
      <point x="4" y="366"/>
      <point x="4" y="432" type="curve" smooth="yes"/>
      <point x="4" y="455"/>
      <point x="10" y="462"/>
      <point x="-16" y="454" type="curve" smooth="yes"/>
      <point x="-81" y="435"/>
      <point x="-107" y="521"/>
    </contour>
    <contour>
      <point x="389" y="502" type="curve" smooth="yes"/>
      <point x="123" y="-98" type="line" smooth="yes"/>
      <point x="96" y="-160"/>
      <point x="14" y="-123"/>
      <point x="41" y="-62" type="curve" smooth="yes"/>
      <point x="307" y="538" type="line" smooth="yes"/>
      <point x="334" y="600"/>
      <point x="416" y="563"/>
    </contour>
    <contour>
      <point x="510" y="-116" type="curve" smooth="yes"/>
      <point x="483" y="-116"/>
      <point x="461" y="-116"/>
      <point x="442" y="-116" type="curve" smooth="yes"/>
      <point x="322" y="-116"/>
      <point x="286" y="-62"/>
      <point x="375" y="38" type="curve" smooth="yes"/>
      <point x="418" y="84"/>
      <point x="455" y="129"/>
      <point x="455" y="162" type="curve" smooth="yes"/>
      <point x="455" y="208"/>
      <point x="420" y="225"/>
      <point x="384" y="195" type="curve" smooth="yes"/>
      <point x="333" y="151"/>
      <point x="274" y="220"/>
      <point x="326" y="263" type="curve" smooth="yes"/>
      <point x="420" y="343"/>
      <point x="545" y="284"/>
      <point x="545" y="162" type="curve" smooth="yes"/>
      <point x="545" y="106"/>
      <point x="514" y="57"/>
      <point x="443" y="-22" type="curve" smooth="yes"/>
      <point x="438" y="-27"/>
      <point x="436" y="-26"/>
      <point x="442" y="-26" type="curve" smooth="yes"/>
      <point x="470" y="-26"/>
      <point x="492" y="-26"/>
      <point x="510" y="-26" type="curve" smooth="yes"/>
      <point x="578" y="-26"/>
      <point x="578" y="-116"/>
    </contour>
  </outline>
</glyph>
<glyph name="multiply" format="2">
  <advance width="365"/>
  <unicode hex="00D7"/>
  <outline>
    <contour>
      <point x="14" y="373" type="curve" smooth="yes"/>
      <point x="129" y="323"/>
      <point x="208" y="215"/>
      <point x="244" y="54" type="curve" smooth="yes"/>
      <point x="258" y="-12"/>
      <point x="171" y="-32"/>
      <point x="156" y="34" type="curve" smooth="yes"/>
      <point x="128" y="163"/>
      <point x="69" y="251"/>
      <point x="-22" y="291" type="curve" smooth="yes"/>
      <point x="-84" y="318"/>
      <point x="-48" y="400"/>
    </contour>
    <contour>
      <point x="237" y="306" type="curve" smooth="yes"/>
      <point x="130" y="155"/>
      <point x="63" y="61"/>
      <point x="33" y="18" type="curve" smooth="yes"/>
      <point x="-6" y="-37"/>
      <point x="-80" y="15"/>
      <point x="-41" y="70" type="curve" smooth="yes"/>
      <point x="-7" y="117"/>
      <point x="64" y="219"/>
      <point x="163" y="358" type="curve" smooth="yes"/>
      <point x="202" y="413"/>
      <point x="276" y="361"/>
    </contour>
  </outline>
</glyph>
<glyph name="Oslash" format="2">
  <advance width="518"/>
  <unicode hex="00D8"/>
  <outline>
    <contour>
      <point x="441" y="693" type="curve" smooth="yes"/>
      <point x="371" y="508"/>
      <point x="196" y="153"/>
      <point x="137" y="-2" type="curve" smooth="yes"/>
      <point x="129" y="-22"/>
      <point x="123" y="-41"/>
      <point x="109" y="-88" type="curve" smooth="yes"/>
      <point x="106" y="-97"/>
      <point x="116" y="19"/>
      <point x="113" y="22" type="curve" smooth="yes"/>
      <point x="105" y="34"/>
      <point x="129" y="-50"/>
      <point x="7" y="20" type="curve" smooth="yes"/>
      <point x="-43" y="48"/>
      <point x="-66" y="111"/>
      <point x="-66" y="221" type="curve" smooth="yes"/>
      <point x="-66" y="432"/>
      <point x="36" y="570"/>
      <point x="173" y="570" type="curve" smooth="yes"/>
      <point x="310" y="570"/>
      <point x="414" y="434"/>
      <point x="414" y="221" type="curve" smooth="yes"/>
      <point x="414" y="115"/>
      <point x="388" y="27"/>
      <point x="345" y="-35" type="curve" smooth="yes"/>
      <point x="296" y="-104"/>
      <point x="229" y="-119"/>
      <point x="176" y="-96" type="curve" smooth="yes"/>
      <point x="114" y="-70"/>
      <point x="150" y="13"/>
      <point x="212" y="-14" type="curve" smooth="yes"/>
      <point x="232" y="-22"/>
      <point x="253" y="-9"/>
      <point x="271" y="17" type="curve" smooth="yes"/>
      <point x="306" y="65"/>
      <point x="324" y="137"/>
      <point x="324" y="221" type="curve" smooth="yes"/>
      <point x="324" y="365"/>
      <point x="265" y="480"/>
      <point x="173" y="480" type="curve" smooth="yes"/>
      <point x="81" y="480"/>
      <point x="24" y="363"/>
      <point x="24" y="221" type="curve" smooth="yes"/>
      <point x="24" y="174"/>
      <point x="30" y="110"/>
      <point x="51" y="98" type="curve" smooth="yes"/>
      <point x="81" y="81"/>
      <point x="151" y="122"/>
      <point x="185" y="78" type="curve" smooth="yes"/>
      <point x="257" y="-15"/>
      <point x="-56" y="-317"/>
      <point x="23" y="-62" type="curve" smooth="yes"/>
      <point x="39" y="-11"/>
      <point x="45" y="8"/>
      <point x="53" y="30" type="curve" smooth="yes"/>
      <point x="111" y="183"/>
      <point x="286" y="538"/>
      <point x="357" y="725" type="curve" smooth="yes"/>
      <point x="381" y="788"/>
      <point x="465" y="756"/>
    </contour>
  </outline>
</glyph>
<glyph name="Thorn" format="2">
  <advance width="393"/>
  <unicode hex="00DE"/>
  <outline>
    <contour>
      <point x="94" y="115" type="curve" smooth="yes"/>
      <point x="96" y="93"/>
      <point x="111" y="94"/>
      <point x="131" y="95" type="curve" smooth="yes"/>
      <point x="180" y="97"/>
      <point x="206" y="147"/>
      <point x="206" y="218" type="curve" smooth="yes"/>
      <point x="206" y="292"/>
      <point x="173" y="349"/>
      <point x="125" y="364" type="curve" smooth="yes"/>
      <point x="105" y="369"/>
      <point x="86" y="377"/>
      <point x="71" y="389" type="curve" smooth="yes"/>
      <point x="15" y="428"/>
      <point x="33" y="487"/>
      <point x="44" y="573" type="curve" smooth="yes"/>
      <point x="45" y="581"/>
      <point x="49" y="415"/>
      <point x="49" y="404" type="curve" smooth="yes"/>
      <point x="49" y="208"/>
      <point x="49" y="50"/>
      <point x="49" y="-80" type="curve" smooth="yes"/>
      <point x="49" y="-147"/>
      <point x="-41" y="-147"/>
      <point x="-41" y="-80" type="curve" smooth="yes"/>
      <point x="-41" y="114"/>
      <point x="-41" y="272"/>
      <point x="-41" y="404" type="curve" smooth="yes"/>
      <point x="-41" y="652"/>
      <point x="156" y="742"/>
      <point x="134" y="561" type="curve" smooth="yes"/>
      <point x="132" y="552"/>
      <point x="117" y="466"/>
      <point x="123" y="461" type="curve" smooth="yes"/>
      <point x="130" y="457"/>
      <point x="141" y="453"/>
      <point x="151" y="450" type="curve" smooth="yes"/>
      <point x="231" y="425"/>
      <point x="296" y="341"/>
      <point x="296" y="218" type="curve" smooth="yes"/>
      <point x="296" y="86"/>
      <point x="227" y="9"/>
      <point x="135" y="5" type="curve" smooth="yes"/>
      <point x="69" y="2"/>
      <point x="13" y="29"/>
      <point x="4" y="105" type="curve" smooth="yes"/>
      <point x="-4" y="172"/>
      <point x="86" y="182"/>
    </contour>
  </outline>
</glyph>
<glyph name="germandbls" format="2">
  <advance width="389"/>
  <unicode hex="00DF"/>
  <outline>
    <contour>
      <point x="158" y="-14" type="curve" smooth="yes"/>
      <point x="162" y="-22"/>
      <point x="198" y="96"/>
      <point x="202" y="108" type="curve" smooth="yes"/>
      <point x="230" y="201"/>
      <point x="242" y="290"/>
      <point x="223" y="329" type="curve" smooth="yes"/>
      <point x="219" y="336"/>
      <point x="219" y="339"/>
      <point x="209" y="336" type="curve" smooth="yes"/>
      <point x="206" y="335"/>
      <point x="129" y="331"/>
      <point x="131" y="331" type="curve"/>
      <point x="131" y="331"/>
      <point x="135" y="346"/>
      <point x="136" y="347" type="curve" smooth="yes"/>
      <point x="152" y="366"/>
      <point x="163" y="391"/>
      <point x="163" y="422" type="curve" smooth="yes"/>
      <point x="163" y="477"/>
      <point x="141" y="528"/>
      <point x="103" y="528" type="curve" smooth="yes"/>
      <point x="66" y="528"/>
      <point x="7" y="487"/>
      <point x="33" y="443" type="curve" smooth="yes"/>
      <point x="90" y="353"/>
      <point x="87" y="163"/>
      <point x="39" y="-88" type="curve" smooth="yes"/>
      <point x="27" y="-155"/>
      <point x="-62" y="-138"/>
      <point x="-49" y="-72" type="curve" smooth="yes"/>
      <point x="-11" y="129"/>
      <point x="2" y="324"/>
      <point x="-43" y="397" type="curve" smooth="yes"/>
      <point x="-113" y="511"/>
      <point x="6" y="618"/>
      <point x="103" y="618" type="curve" smooth="yes"/>
      <point x="185" y="618"/>
      <point x="253" y="542"/>
      <point x="253" y="422" type="curve" smooth="yes"/>
      <point x="253" y="367"/>
      <point x="232" y="322"/>
      <point x="206" y="291" type="curve" smooth="yes"/>
      <point x="169" y="246"/>
      <point x="132" y="239"/>
      <point x="111" y="243" type="curve" smooth="yes"/>
      <point x="60" y="254"/>
      <point x="54" y="390"/>
      <point x="187" y="424" type="curve" smooth="yes"/>
      <point x="246" y="439"/>
      <point x="285" y="407"/>
      <point x="303" y="369" type="curve" smooth="yes"/>
      <point x="331" y="313"/>
      <point x="329" y="217"/>
      <point x="288" y="82" type="curve" smooth="yes"/>
      <point x="217" y="-147"/>
      <point x="138" y="-197"/>
      <point x="76" y="-48" type="curve" smooth="yes"/>
      <point x="49" y="14"/>
      <point x="132" y="49"/>
    </contour>
  </outline>
</glyph>
<glyph name="eth" format="2">
  <advance width="389"/>
  <unicode hex="00F0"/>
  <outline>
    <contour>
      <point x="149" y="605" type="curve" smooth="yes"/>
      <point x="152" y="574"/>
      <point x="160" y="548"/>
      <point x="172" y="531" type="curve" smooth="yes"/>
      <point x="245" y="431"/>
      <point x="290" y="313"/>
      <point x="290" y="147" type="curve" smooth="yes"/>
      <point x="290" y="-8"/>
      <point x="217" y="-130"/>
      <point x="106" y="-130" type="curve" smooth="yes"/>
      <point x="6" y="-130"/>
      <point x="-71" y="-37"/>
      <point x="-71" y="117" type="curve" smooth="yes"/>
      <point x="-71" y="261"/>
      <point x="-7" y="343"/>
      <point x="97" y="373" type="curve" smooth="yes"/>
      <point x="217" y="407"/>
      <point x="317" y="312"/>
      <point x="364" y="235" type="curve" smooth="yes"/>
      <point x="398" y="177"/>
      <point x="321" y="131"/>
      <point x="286" y="189" type="curve" smooth="yes"/>
      <point x="259" y="235"/>
      <point x="193" y="307"/>
      <point x="121" y="287" type="curve" smooth="yes"/>
      <point x="52" y="267"/>
      <point x="19" y="214"/>
      <point x="19" y="117" type="curve" smooth="yes"/>
      <point x="19" y="31"/>
      <point x="50" y="-40"/>
      <point x="106" y="-40" type="curve" smooth="yes"/>
      <point x="167" y="-40"/>
      <point x="200" y="61"/>
      <point x="200" y="147" type="curve" smooth="yes"/>
      <point x="200" y="291"/>
      <point x="163" y="391"/>
      <point x="98" y="479" type="curve" smooth="yes"/>
      <point x="78" y="508"/>
      <point x="65" y="544"/>
      <point x="59" y="595" type="curve" smooth="yes"/>
      <point x="51" y="662"/>
      <point x="140" y="672"/>
    </contour>
    <contour>
      <point x="214" y="513" type="curve" smooth="yes"/>
      <point x="206" y="517"/>
      <point x="102" y="441"/>
      <point x="74" y="418" type="curve" smooth="yes"/>
      <point x="22" y="374"/>
      <point x="-36" y="443"/>
      <point x="16" y="486" type="curve" smooth="yes"/>
      <point x="158" y="606"/>
      <point x="220" y="614"/>
      <point x="260" y="589" type="curve" smooth="yes"/>
      <point x="318" y="554"/>
      <point x="271" y="478"/>
    </contour>
  </outline>
</glyph>
<glyph name="oslash" format="2">
  <advance width="424"/>
  <unicode hex="00F8"/>
  <outline>
    <contour>
      <point x="204" y="79" type="curve" smooth="yes"/>
      <point x="265" y="79"/>
      <point x="303" y="159"/>
      <point x="303" y="249" type="curve" smooth="yes"/>
      <point x="303" y="339"/>
      <point x="265" y="418"/>
      <point x="203" y="418" type="curve" smooth="yes"/>
      <point x="143" y="418"/>
      <point x="104" y="339"/>
      <point x="104" y="249" type="curve" smooth="yes"/>
      <point x="104" y="159"/>
      <point x="143" y="79"/>
    </contour>
    <contour>
      <point x="204" y="-11" type="curve" smooth="yes"/>
      <point x="98" y="-11"/>
      <point x="14" y="93"/>
      <point x="14" y="249" type="curve" smooth="yes"/>
      <point x="14" y="405"/>
      <point x="98" y="508"/>
      <point x="203" y="508" type="curve" smooth="yes"/>
      <point x="310" y="508"/>
      <point x="393" y="405"/>
      <point x="393" y="249" type="curve" smooth="yes"/>
      <point x="393" y="93"/>
      <point x="310" y="-11"/>
    </contour>
    <contour>
      <point x="52" y="-12" type="curve" smooth="yes"/>
      <point x="272" y="543" type="line" smooth="yes"/>
      <point x="297" y="605"/>
      <point x="381" y="572"/>
      <point x="356" y="509" type="curve" smooth="yes"/>
      <point x="136" y="-46" type="line" smooth="yes"/>
      <point x="111" y="-108"/>
      <point x="27" y="-75"/>
    </contour>
  </outline>
</glyph>
<glyph name="thorn" format="2">
  <advance width="412"/>
  <unicode hex="00FE"/>
  <outline>
    <contour>
      <point x="215" y="508" type="curve" smooth="yes"/>
      <point x="316" y="508"/>
      <point x="399" y="406"/>
      <point x="399" y="248" type="curve" smooth="yes"/>
      <point x="399" y="90"/>
      <point x="316" y="-11"/>
      <point x="216" y="-11" type="curve" smooth="yes"/>
      <point x="115" y="-11"/>
      <point x="33" y="90"/>
      <point x="33" y="248" type="curve" smooth="yes"/>
      <point x="33" y="406"/>
      <point x="114" y="508"/>
    </contour>
    <contour>
      <point x="215" y="418" type="curve" smooth="yes"/>
      <point x="158" y="418"/>
      <point x="123" y="337"/>
      <point x="123" y="248" type="curve" smooth="yes"/>
      <point x="123" y="159"/>
      <point x="159" y="79"/>
      <point x="216" y="79" type="curve" smooth="yes"/>
      <point x="272" y="79"/>
      <point x="309" y="159"/>
      <point x="309" y="248" type="curve" smooth="yes"/>
      <point x="309" y="337"/>
      <point x="272" y="418"/>
    </contour>
    <contour>
      <point x="33" y="-125" type="curve" smooth="yes"/>
      <point x="33" y="695" type="line" smooth="yes"/>
      <point x="33" y="763"/>
      <point x="123" y="763"/>
      <point x="123" y="695" type="curve" smooth="yes"/>
      <point x="123" y="-125" type="line" smooth="yes"/>
      <point x="123" y="-192"/>
      <point x="33" y="-192"/>
    </contour>
  </outline>
</glyph>
<glyph name="OE" format="2">
  <advance width="659"/>
  <unicode hex="0152"/>
  <outline>
    <contour>
      <point x="536" y="223" type="curve" smooth="yes"/>
      <point x="481" y="186"/>
      <point x="447" y="185"/>
      <point x="418" y="185" type="curve" smooth="yes"/>
      <point x="390" y="185"/>
      <point x="368" y="185"/>
      <point x="348" y="185" type="curve" smooth="yes"/>
      <point x="280" y="185"/>
      <point x="248" y="202"/>
      <point x="248" y="298" type="curve" smooth="yes"/>
      <point x="248" y="324"/>
      <point x="248" y="341"/>
      <point x="248" y="356" type="curve" smooth="yes"/>
      <point x="248" y="551"/>
      <point x="423" y="652"/>
      <point x="423" y="476" type="curve" smooth="yes"/>
      <point x="423" y="368"/>
      <point x="423" y="168"/>
      <point x="423" y="125" type="curve" smooth="yes"/>
      <point x="423" y="103"/>
      <point x="421" y="90"/>
      <point x="437" y="90" type="curve" smooth="yes"/>
      <point x="483" y="90"/>
      <point x="502" y="90"/>
      <point x="529" y="90" type="curve" smooth="yes"/>
      <point x="672" y="90"/>
      <point x="587" y="-120"/>
      <point x="444" y="-120" type="curve" smooth="yes"/>
      <point x="332" y="-120"/>
      <point x="242" y="-120"/>
      <point x="168" y="-120" type="curve" smooth="yes"/>
      <point x="32" y="-120"/>
      <point x="-67" y="15"/>
      <point x="-67" y="219" type="curve" smooth="yes"/>
      <point x="-67" y="424"/>
      <point x="31" y="560"/>
      <point x="167" y="560" type="curve" smooth="yes"/>
      <point x="268" y="560"/>
      <point x="350" y="560"/>
      <point x="418" y="560" type="curve" smooth="yes"/>
      <point x="442" y="560"/>
      <point x="461" y="559"/>
      <point x="502" y="584" type="curve" smooth="yes"/>
      <point x="560" y="618"/>
      <point x="606" y="541"/>
      <point x="548" y="506" type="curve" smooth="yes"/>
      <point x="489" y="471"/>
      <point x="452" y="470"/>
      <point x="418" y="470" type="curve" smooth="yes"/>
      <point x="317" y="470"/>
      <point x="235" y="470"/>
      <point x="167" y="470" type="curve" smooth="yes"/>
      <point x="76" y="470"/>
      <point x="23" y="356"/>
      <point x="23" y="219" type="curve" smooth="yes"/>
      <point x="23" y="83"/>
      <point x="77" y="-30"/>
      <point x="168" y="-30" type="curve" smooth="yes"/>
      <point x="279" y="-30"/>
      <point x="369" y="-30"/>
      <point x="444" y="-30" type="curve" smooth="yes"/>
      <point x="450" y="-30"/>
      <point x="535" y="0"/>
      <point x="529" y="0" type="curve" smooth="yes"/>
      <point x="489" y="0"/>
      <point x="468" y="0"/>
      <point x="437" y="0" type="curve" smooth="yes"/>
      <point x="374" y="0"/>
      <point x="333" y="36"/>
      <point x="333" y="125" type="curve" smooth="yes"/>
      <point x="333" y="190"/>
      <point x="333" y="403"/>
      <point x="333" y="476" type="curve" smooth="yes"/>
      <point x="333" y="484"/>
      <point x="338" y="365"/>
      <point x="338" y="356" type="curve" smooth="yes"/>
      <point x="338" y="334"/>
      <point x="338" y="315"/>
      <point x="338" y="298" type="curve" smooth="yes"/>
      <point x="338" y="279"/>
      <point x="335" y="275"/>
      <point x="348" y="275" type="curve" smooth="yes"/>
      <point x="377" y="275"/>
      <point x="399" y="275"/>
      <point x="418" y="275" type="curve" smooth="yes"/>
      <point x="437" y="275"/>
      <point x="451" y="274"/>
      <point x="486" y="297" type="curve" smooth="yes"/>
      <point x="542" y="335"/>
      <point x="592" y="260"/>
    </contour>
  </outline>
</glyph>
<glyph name="circumflex" format="2">
  <advance width="398"/>
  <unicode hex="02C6"/>
  <outline>
    <contour>
      <point x="9" y="534" type="curve" smooth="yes"/>
      <point x="19" y="546"/>
      <point x="30" y="559"/>
      <point x="48" y="581" type="curve" smooth="yes"/>
      <point x="97" y="639"/>
      <point x="133" y="636"/>
      <point x="179" y="581" type="curve" smooth="yes"/>
      <point x="193" y="565"/>
      <point x="198" y="556"/>
      <point x="228" y="547" type="curve" smooth="yes"/>
      <point x="293" y="528"/>
      <point x="267" y="442"/>
      <point x="202" y="461" type="curve" smooth="yes"/>
      <point x="152" y="476"/>
      <point x="135" y="495"/>
      <point x="111" y="523" type="curve" smooth="yes"/>
      <point x="109" y="525"/>
      <point x="120" y="526"/>
      <point x="118" y="523" type="curve" smooth="yes"/>
      <point x="98" y="499"/>
      <point x="87" y="486"/>
      <point x="75" y="474" type="curve" smooth="yes"/>
      <point x="30" y="424"/>
      <point x="-37" y="485"/>
    </contour>
  </outline>
</glyph>
<glyph name="ring" format="2">
  <advance width="296"/>
  <unicode hex="02DA"/>
  <outline>
    <contour>
      <point x="147" y="621" type="curve" smooth="yes"/>
      <point x="161" y="621"/>
      <point x="166" y="641"/>
      <point x="166" y="660" type="curve" smooth="yes"/>
      <point x="166" y="678"/>
      <point x="161" y="694"/>
      <point x="147" y="694" type="curve" smooth="yes"/>
      <point x="135" y="694"/>
      <point x="131" y="676"/>
      <point x="131" y="660" type="curve" smooth="yes"/>
      <point x="131" y="643"/>
      <point x="135" y="621"/>
    </contour>
    <contour>
      <point x="147" y="531" type="curve" smooth="yes"/>
      <point x="87" y="531"/>
      <point x="41" y="579"/>
      <point x="41" y="660" type="curve" smooth="yes"/>
      <point x="41" y="737"/>
      <point x="88" y="784"/>
      <point x="147" y="784" type="curve" smooth="yes"/>
      <point x="207" y="784"/>
      <point x="256" y="736"/>
      <point x="256" y="660" type="curve" smooth="yes"/>
      <point x="256" y="580"/>
      <point x="208" y="531"/>
    </contour>
  </outline>
</glyph>
<glyph name="tilde" format="2">
  <advance width="399"/>
  <unicode hex="02DC"/>
  <outline>
    <contour>
      <point x="286" y="609" type="curve" smooth="yes"/>
      <point x="253" y="475"/>
      <point x="219" y="438"/>
      <point x="165" y="438" type="curve" smooth="yes"/>
      <point x="66" y="438"/>
      <point x="84" y="545"/>
      <point x="61" y="545" type="curve" smooth="yes"/>
      <point x="58" y="545"/>
      <point x="63" y="542"/>
      <point x="65" y="540" type="curve" smooth="yes"/>
      <point x="106" y="486"/>
      <point x="34" y="432"/>
      <point x="-7" y="486" type="curve" smooth="yes"/>
      <point x="-52" y="545"/>
      <point x="-10" y="635"/>
      <point x="61" y="635" type="curve" smooth="yes"/>
      <point x="160" y="635"/>
      <point x="142" y="528"/>
      <point x="165" y="528" type="curve" smooth="yes"/>
      <point x="170" y="528"/>
      <point x="195" y="619"/>
      <point x="198" y="631" type="curve" smooth="yes"/>
      <point x="215" y="696"/>
      <point x="302" y="675"/>
    </contour>
  </outline>
</glyph>
<glyph name="emdash" format="2">
  <advance width="569"/>
  <unicode hex="2014"/>
  <outline>
    <contour>
      <point x="495" y="263" type="curve" smooth="yes"/>
      <point x="74" y="263" type="line" smooth="yes"/>
      <point x="6" y="263"/>
      <point x="7" y="353"/>
      <point x="74" y="353" type="curve" smooth="yes"/>
      <point x="495" y="353" type="line" smooth="yes"/>
      <point x="563" y="353"/>
      <point x="563" y="263"/>
    </contour>
  </outline>
</glyph>
<glyph name="Euro" format="2">
  <advance width="428"/>
  <unicode hex="20AC"/>
  <outline>
    <contour>
      <point x="392" y="52" type="curve" smooth="yes"/>
      <point x="212" y="-37"/>
      <point x="59" y="87"/>
      <point x="59" y="340" type="curve" smooth="yes"/>
      <point x="59" y="593"/>
      <point x="212" y="717"/>
      <point x="392" y="628" type="curve" smooth="yes"/>
      <point x="452" y="598"/>
      <point x="413" y="518"/>
      <point x="352" y="548" type="curve" smooth="yes"/>
      <point x="228" y="609"/>
      <point x="149" y="514"/>
      <point x="149" y="340" type="curve" smooth="yes"/>
      <point x="149" y="166"/>
      <point x="228" y="71"/>
      <point x="352" y="132" type="curve" smooth="yes"/>
      <point x="413" y="162"/>
      <point x="452" y="82"/>
    </contour>
    <contour>
      <point x="49" y="465" type="curve" smooth="yes"/>
      <point x="322" y="465" type="line" smooth="yes"/>
      <point x="390" y="465"/>
      <point x="390" y="375"/>
      <point x="322" y="375" type="curve" smooth="yes"/>
      <point x="49" y="375" type="line" smooth="yes"/>
      <point x="-18" y="375"/>
      <point x="-18" y="465"/>
    </contour>
    <contour>
      <point x="49" y="307" type="curve" smooth="yes"/>
      <point x="312" y="307" type="line" smooth="yes"/>
      <point x="380" y="307"/>
      <point x="380" y="217"/>
      <point x="312" y="217" type="curve" smooth="yes"/>
      <point x="49" y="217" type="line" smooth="yes"/>
      <point x="-18" y="217"/>
      <point x="-18" y="307"/>
    </contour>
  </outline>
</glyph>
<glyph name="E" format="2">
  <advance width="394"/>
  <outline>
    <contour>
      <point x="465.62497256606184" y="90.01914232466302" type="curve" smooth="yes"/>
      <point x="465.8382923823817" y="90.01947140628026"/>
      <point x="425.9421965214181" y="-9.973816862870109"/>
      <point x="423.2756985635856" y="-9.973816862870109" type="curve" smooth="yes"/>
      <point x="346.9081661954384" y="-9.973816862870109" type="line" smooth="yes"/>
      <point x="273.8700179295361" y="-9.973816862870109"/>
      <point x="233.2694467671703" y="32.80444566026039"/>
      <point x="233.2574490621319" y="130.0200110955884" type="curve" smooth="yes"/>
      <point x="233.23967753046952" y="274.020008902343" type="line" smooth="yes"/>
      <point x="233.2296451977921" y="355.31046326380823"/>
      <point x="284.76331554999445" y="404.02617835463644"/>
      <point x="339.79834657147575" y="404.02617835463644" type="curve" smooth="yes"/>
      <point x="428.18669421979416" y="404.02617835463644" type="line" smooth="yes"/>
      <point x="544.3055867697767" y="404.02617835463644"/>
      <point x="515.7422865922247" y="304.03469793154386"/>
      <point x="427.4919295983678" y="304.01291537547564" type="curve" smooth="yes"/>
      <point x="401.32467830759526" y="304.00645659572893"/>
      <point x="358.1890526074062" y="303.9999984159894"/>
      <point x="322.1206786572899" y="303.9999984159894" type="curve" smooth="yes"/>
      <point x="233.0252242277849" y="303.9999984159894" type="line" smooth="yes"/>
      <point x="114.88754079196185" y="303.9999984159894"/>
      <point x="227.97403447239495" y="509.68341741263987"/>
      <point x="233.565808103755" y="556.0169655178669" type="curve" smooth="yes"/>
      <point x="245.2295736708887" y="652.6631601996495"/>
      <point x="282.85627446362406" y="690.0261739986073"/>
      <point x="346.83411814684507" y="690.0261739986073" type="curve" smooth="yes"/>
      <point x="423.2016505149922" y="690.0261739986073" type="line" smooth="yes"/>
      <point x="601.1870453977466" y="690.0261739986073"/>
      <point x="487.03772607950833" y="590.0411849093831"/>
      <point x="465.679480049014" y="590.0192191241014" type="curve" smooth="yes"/>
      <point x="390.67951971271367" y="589.9420857760491"/>
      <point x="390.576675248644" y="689.9420328911161"/>
      <point x="465.5766355849443" y="690.0191662391684" type="curve" smooth="yes"/>
      <point x="465.89661531957756" y="690.0194953207855"/>
      <point x="425.8681484728247" y="590.0261739986073"/>
      <point x="423.2016505149922" y="590.0261739986073" type="curve" smooth="yes"/>
      <point x="346.83411814684507" y="590.0261739986073" type="line" smooth="yes"/>
      <point x="338.18617921857077" y="590.0261739986073"/>
      <point x="334.42202299045726" y="557.099132623779"/>
      <point x="332.8454219909345" y="544.0353852209047" type="curve" smooth="yes"/>
      <point x="271.50323307418984" y="35.75278144843682"/>
      <point x="222.44556180308757" y="403.9999984159894"/>
      <point x="233.0252242277849" y="403.9999984159894" type="curve" smooth="yes"/>
      <point x="322.1206786572899" y="403.9999984159894" type="line" smooth="yes"/>
      <point x="366.06114581274363" y="403.9999984159894"/>
      <point x="395.58886926903534" y="404.0050438903273"/>
      <point x="427.467246915865" y="404.0129123293015" type="curve" smooth="yes"/>
      <point x="429.493785332952" y="404.01341253335966"/>
      <point x="430.8531921776267" y="304.02617835463644"/>
      <point x="428.18669421979416" y="304.02617835463644" type="curve" smooth="yes"/>
      <point x="339.79834657147575" y="304.02617835463644" type="line" smooth="yes"/>
      <point x="337.1586738720761" y="304.02617835463644"/>
      <point x="333.2391955831395" y="277.93132493538866"/>
      <point x="333.23967676892596" y="274.0323502438692" type="curve" smooth="yes"/>
      <point x="333.25744830058835" y="130.0323524371146" type="line" smooth="yes"/>
      <point x="333.2600539063349" y="108.91952834780302"/>
      <point x="331.04608105257216" y="90.02618313712989"/>
      <point x="346.9081661954384" y="90.02618313712989" type="curve" smooth="yes"/>
      <point x="423.2756985635856" y="90.02618313712989" type="line" smooth="yes"/>
      <point x="606.3289764534743" y="90.02618313712989"/>
      <point x="480.423500002244" y="-9.958147454321026"/>
      <point x="465.77923916508314" y="-9.980738684348317" type="curve" smooth="yes"/>
      <point x="390.77932840832466" y="-10.096438633614298"/>
      <point x="390.62506180930336" y="89.90344237539703"/>
    </contour>
  </outline>
</glyph>
<glyph name="acute.cap" format="2">
  <advance width="288"/>
  <outline>
    <contour>
      <point x="217" y="869" type="curve" smooth="yes"/>
      <point x="152" y="763" type="line" smooth="yes"/>
      <point x="117" y="706"/>
      <point x="40" y="753"/>
      <point x="76" y="811" type="curve" smooth="yes"/>
      <point x="141" y="917" type="line" smooth="yes"/>
      <point x="176" y="974"/>
      <point x="253" y="927"/>
    </contour>
  </outline>
</glyph>
<glyph name="dieresis.cap" format="2">
  <advance width="409"/>
  <outline>
    <contour>
      <point x="126" y="775" type="curve" smooth="yes"/>
      <point x="54" y="790"/>
      <point x="54" y="892"/>
      <point x="126" y="907" type="curve" smooth="yes"/>
      <point x="192" y="921"/>
      <point x="210" y="833"/>
      <point x="144" y="819" type="curve" smooth="yes"/>
      <point x="142" y="819"/>
      <point x="142" y="863"/>
      <point x="144" y="863" type="curve" smooth="yes"/>
      <point x="210" y="849"/>
      <point x="192" y="761"/>
    </contour>
    <contour>
      <point x="281" y="775" type="curve" smooth="yes"/>
      <point x="209" y="790"/>
      <point x="209" y="892"/>
      <point x="281" y="907" type="curve" smooth="yes"/>
      <point x="347" y="921"/>
      <point x="365" y="833"/>
      <point x="299" y="819" type="curve" smooth="yes"/>
      <point x="297" y="819"/>
      <point x="297" y="863"/>
      <point x="299" y="863" type="curve" smooth="yes"/>
      <point x="365" y="849"/>
      <point x="347" y="761"/>
    </contour>
  </outline>
</glyph>
<glyph name="l" format="2">
  <advance width="180"/>
  <outline>
    <contour>
      <point x="174.04191575666175" y="79.43327145257882" type="curve" smooth="yes"/>
      <point x="181.10532967815143" y="84.94681520127213"/>
      <point x="183.08144018583727" y="125.03973535705137"/>
      <point x="183.07897435177995" y="145.02001086712536" type="curve" smooth="yes"/>
      <point x="183.02195735436305" y="607.0200038304629" type="line" smooth="yes"/>
      <point x="183.0214268078407" y="611.318941001634"/>
      <point x="184.26265666505523" y="653.393148098285"/>
      <point x="183.1426530771533" y="653.9962312726979" type="curve" smooth="yes"/>
      <point x="117.10742689067419" y="689.5539154281732"/>
      <point x="164.51767243130794" y="777.6008836768121"/>
      <point x="230.55289861778706" y="742.0431995213368" type="curve" smooth="yes"/>
      <point x="254.58501220514609" y="729.1027379847214"/>
      <point x="283.01057256295934" y="699.2753946751058"/>
      <point x="283.0219565928195" y="607.0323451719892" type="curve" smooth="yes"/>
      <point x="283.0789735902364" y="145.03235220865153" type="line" smooth="yes"/>
      <point x="283.08939119811333" y="60.62007194318775"/>
      <point x="265.41478144172845" y="23.898644829037362"/>
      <point x="235.5734073690266" y="0.605132187735876" type="curve" smooth="yes"/>
      <point x="176.45230292039437" y="-45.54348652153776"/>
      <point x="114.92081130802953" y="33.28465274330519"/>
    </contour>
  </outline>
</glyph>
<glyph name="o" format="2">
  <advance width="452"/>
  <outline>
    <contour>
      <point x="431.58651411980566" y="94.68632332714823" type="curve" smooth="yes"/>
      <point x="464.048849041164" y="102.34090529814948"/>
      <point x="488.0200407608423" y="115.73493895501863"/>
      <point x="503.64102965514326" y="142.93021336565027" type="curve" smooth="yes"/>
      <point x="523.0573000143777" y="176.73286209828166"/>
      <point x="531.6330780994961" y="221.09045452962084"/>
      <point x="531.6271629494445" y="269.0200089784973" type="curve" smooth="yes"/>
      <point x="531.615704779536" y="361.8638039330583"/>
      <point x="490.170999421697" y="447.0261761766219"/>
      <point x="426.0355324491667" y="447.0261761766219" type="curve" smooth="yes"/>
      <point x="361.51488362310994" y="447.0261761766219"/>
      <point x="320.48838547361584" y="364.5891590287717"/>
      <point x="320.50017846581994" y="269.0323503200235" type="curve" smooth="yes"/>
      <point x="320.5060641872643" y="221.3412513659176"/>
      <point x="329.96415175513954" y="175.8859504048551"/>
      <point x="349.03795538359014" y="143.2627861661399" type="curve" smooth="yes"/>
      <point x="365.5245800562892" y="115.0646420037841"/>
      <point x="395.9624850988456" y="88.24591078384282"/>
      <point x="403.8640925092376" y="79.4636210536289" type="curve" smooth="yes"/>
      <point x="454.0278417032716" y="23.70881617729509"/>
      <point x="379.6881018681599" y="-43.17618274808356"/>
      <point x="329.5243526741259" y="12.578622128250245" type="curve" smooth="yes"/>
      <point x="317.7347535446984" y="25.682243958605724"/>
      <point x="287.3092317087934" y="50.71651606230269"/>
      <point x="262.71035127937347" y="92.78957773210402" type="curve" smooth="yes"/>
      <point x="235.44582197592692" y="139.42187167220098"/>
      <point x="220.50859241164062" y="200.84926599106873"/>
      <point x="220.5001792273635" y="269.02000897849734" type="curve" smooth="yes"/>
      <point x="220.47939781609355" y="437.40860002069604"/>
      <point x="312.3383370764885" y="547.0261761766219"/>
      <point x="426.0355324491667" y="547.0261761766219" type="curve" smooth="yes"/>
      <point x="540.0742460567953" y="547.0261761766219"/>
      <point x="631.6067885160725" y="434.1170911484238"/>
      <point x="631.6271621879009" y="269.03235032002357" type="curve" smooth="yes"/>
      <point x="631.6355500610542" y="201.06669949023396"/>
      <point x="617.8869980625744" y="141.0553943797603"/>
      <point x="590.3541017770458" y="93.12215053259365" type="curve" smooth="yes"/>
      <point x="561.1520503905559" y="42.28300032369147"/>
      <point x="515.2224478701285" y="11.665131955066038"/>
      <point x="454.53699582139177" y="-2.6444292111177248" type="curve" smooth="yes"/>
      <point x="381.5389314176923" y="-19.85729048730724"/>
      <point x="358.5884497161062" y="77.47346205095872"/>
    </contour>
  </outline>
</glyph>
<glyph name="period" format="2">
  <advance width="181"/>
  <outline>
    <contour>
      <point x="224.28450582657968" y="149.8078552369442" type="curve" smooth="yes"/>
      <point x="257.1981196166694" y="137.40513854954048"/>
      <point x="277.88848685091693" y="76.71848046042408"/>
      <point x="284.1116336600165" y="67.00948187153779" type="curve" smooth="yes"/>
      <point x="324.58396376776363" y="3.866861592921339"/>
      <point x="240.39380339627505" y="-50.09624521740818"/>
      <point x="199.92147328852792" y="13.046375061208266" type="curve" smooth="yes"/>
      <point x="92.17655181562077" y="181.14385413891577"/>
      <point x="190.87672985529164" y="55.532474462244856"/>
      <point x="189.0223739470112" y="56.231244615978014" type="curve" smooth="yes"/>
      <point x="118.83991598128658" y="82.67784352565442"/>
      <point x="154.10204786085507" y="176.2544541466206"/>
    </contour>
  </outline>
</glyph>
<glyph name="s" format="2">
  <advance width="363"/>
  <outline>
    <contour>
      <point x="395.3829772126815" y="440.7835277072097" type="curve" smooth="yes"/>
      <point x="392.93499928592763" y="443.68577989285774"/>
      <point x="378.0912070872443" y="445.848070211597"/>
      <point x="373.2016829766267" y="446.0845541784769" type="curve" smooth="yes"/>
      <point x="342.1690982058349" y="447.5854586802457"/>
      <point x="311.78129758091916" y="428.3053650631573"/>
      <point x="311.7854039175728" y="395.0323484009338" type="curve" smooth="yes"/>
      <point x="311.79773114868397" y="295.14668369418223"/>
      <point x="517.562811610411" y="319.3973984907229"/>
      <point x="517.584824250096" y="141.03235226957506" type="curve" smooth="yes"/>
      <point x="517.6165941458789" y="-116.39424494125112"/>
      <point x="327.1751560225367" y="80.22176571011006"/>
      <point x="341.5262040060662" y="85.71844319986414" type="curve" smooth="yes"/>
      <point x="346.4192890602814" y="87.59257187003679"/>
      <point x="603.2156824410038" y="-108.22724621312652"/>
      <point x="199.43093008827614" y="25.552892146596093" type="curve" smooth="yes"/>
      <point x="128.23670231959176" y="49.14064177263481"/>
      <point x="159.68703515431014" y="144.06627879754728"/>
      <point x="230.88126292299452" y="120.47852917150857" type="curve" smooth="yes"/>
      <point x="241.73612237618093" y="116.88214621979654"/>
      <point x="567.222135510084" y="65.07941194509526"/>
      <point x="377.29394654910743" y="-7.666076895142602" type="curve" smooth="yes"/>
      <point x="158.00075478154727" y="-91.65882447904602"/>
      <point x="417.58691993332206" y="124.04518155415322"/>
      <point x="417.5848250116395" y="141.02001092804883" type="curve" smooth="yes"/>
      <point x="417.57221972268394" y="243.15873574096796"/>
      <point x="211.80693174586733" y="220.58948391666763"/>
      <point x="211.78540467911637" y="395.02000705940765" type="curve" smooth="yes"/>
      <point x="211.77397499045037" y="487.63302287012345"/>
      <point x="291.6556426526811" y="550.1454564489587"/>
      <point x="378.0325796524376" y="545.9677982052286" type="curve" smooth="yes"/>
      <point x="418.42973853951935" y="544.013971990618"/>
      <point x="451.5973262795491" y="529.2367079452831"/>
      <point x="471.82247519422657" y="505.25835340165713" type="curve" smooth="yes"/>
      <point x="520.1785944650621" y="447.92872991549837"/>
      <point x="443.7390964835171" y="383.45390422105095"/>
    </contour>
  </outline>
</glyph>
<glyph name="t.alt" format="2">
  <advance width="238"/>
  <outline>
    <contour>
      <point x="144" y="333" type="curve" smooth="yes"/>
      <point x="111" y="333"/>
      <point x="88" y="352"/>
      <point x="76" y="381" type="curve" smooth="yes"/>
      <point x="76" y="382"/>
      <point x="66" y="361"/>
      <point x="63" y="359" type="curve" smooth="yes"/>
      <point x="31" y="341"/>
      <point x="9" y="333"/>
      <point x="-13" y="333" type="curve" smooth="yes"/>
      <point x="-81" y="333"/>
      <point x="-80" y="423"/>
      <point x="-13" y="423" type="curve" smooth="yes"/>
      <point x="-8" y="423"/>
      <point x="10" y="433"/>
      <point x="17" y="437" type="curve" smooth="yes"/>
      <point x="95" y="483"/>
      <point x="142" y="457"/>
      <point x="160" y="415" type="curve" smooth="yes"/>
      <point x="160" y="414"/>
      <point x="143" y="423"/>
      <point x="144" y="423" type="curve" smooth="yes"/>
      <point x="212" y="423"/>
      <point x="212" y="333"/>
    </contour>
    <contour>
      <point x="169" y="-102" type="curve" smooth="yes"/>
      <point x="87" y="-159"/>
      <point x="-14" y="-117"/>
      <point x="-14" y="19" type="curve" smooth="yes"/>
      <point x="-14" y="183"/>
      <point x="-14" y="245"/>
      <point x="-14" y="343" type="curve" smooth="yes"/>
      <point x="-14" y="396"/>
      <point x="-12" y="439"/>
      <point x="-5" y="488" type="curve" smooth="yes"/>
      <point x="5" y="554"/>
      <point x="94" y="541"/>
      <point x="85" y="474" type="curve" smooth="yes"/>
      <point x="78" y="429"/>
      <point x="76" y="392"/>
      <point x="76" y="343" type="curve" smooth="yes"/>
      <point x="76" y="197"/>
      <point x="76" y="129"/>
      <point x="76" y="19" type="curve" smooth="yes"/>
      <point x="76" y="-28"/>
      <point x="89" y="-48"/>
      <point x="117" y="-28" type="curve" smooth="yes"/>
      <point x="173" y="11"/>
      <point x="224" y="-63"/>
    </contour>
  </outline>
</glyph>
